<mxfile host="app.diagrams.net" modified="2023-10-15T18:27:59.682Z" agent="Mozilla/5.0 (Windows NT 10.0; Win64; x64) AppleWebKit/537.36 (KHTML, like Gecko) Chrome/117.0.0.0 Safari/537.36" etag="9nMnF88s2c-EgLQ05JmV" version="22.0.4" type="google" pages="6">
  <diagram name="Page-1" id="Jpal8i_u-XRPfJ7P-0A_">
    <mxGraphModel dx="880" dy="446" grid="1" gridSize="10" guides="1" tooltips="1" connect="1" arrows="1" fold="1" page="1" pageScale="1" pageWidth="827" pageHeight="1169" math="0" shadow="0">
      <root>
        <mxCell id="0" />
        <mxCell id="1" parent="0" />
        <mxCell id="leJ9jaA0vuehgDLtJOCW-8" style="edgeStyle=orthogonalEdgeStyle;rounded=0;orthogonalLoop=1;jettySize=auto;html=1;exitX=0;exitY=0.5;exitDx=0;exitDy=0;strokeWidth=10;strokeColor=#f50505;" parent="1" source="leJ9jaA0vuehgDLtJOCW-4" target="leJ9jaA0vuehgDLtJOCW-6" edge="1">
          <mxGeometry relative="1" as="geometry" />
        </mxCell>
        <mxCell id="leJ9jaA0vuehgDLtJOCW-9" style="edgeStyle=orthogonalEdgeStyle;rounded=0;orthogonalLoop=1;jettySize=auto;html=1;strokeColor=#03FF0B;strokeWidth=5;" parent="1" source="leJ9jaA0vuehgDLtJOCW-4" target="leJ9jaA0vuehgDLtJOCW-7" edge="1">
          <mxGeometry relative="1" as="geometry" />
        </mxCell>
        <mxCell id="leJ9jaA0vuehgDLtJOCW-4" value="&lt;font style=&quot;font-size: 18px;&quot;&gt;&lt;u style=&quot;color: rgb(255, 82, 8);&quot;&gt;Alimentation&lt;/u&gt;&lt;br&gt;&lt;font color=&quot;#0f0500&quot;&gt;Batterie&lt;/font&gt;&lt;br&gt;&lt;/font&gt;" style="rounded=0;whiteSpace=wrap;html=1;" parent="1" vertex="1">
          <mxGeometry x="340" y="120" width="120" height="60" as="geometry" />
        </mxCell>
        <mxCell id="leJ9jaA0vuehgDLtJOCW-17" style="edgeStyle=orthogonalEdgeStyle;rounded=0;orthogonalLoop=1;jettySize=auto;html=1;entryX=0.5;entryY=0;entryDx=0;entryDy=0;strokeColor=#f50000;strokeWidth=9;" parent="1" source="leJ9jaA0vuehgDLtJOCW-6" target="leJ9jaA0vuehgDLtJOCW-11" edge="1">
          <mxGeometry relative="1" as="geometry">
            <Array as="points">
              <mxPoint x="130" y="220" />
            </Array>
          </mxGeometry>
        </mxCell>
        <mxCell id="leJ9jaA0vuehgDLtJOCW-18" style="edgeStyle=orthogonalEdgeStyle;rounded=0;orthogonalLoop=1;jettySize=auto;html=1;entryX=0.5;entryY=0;entryDx=0;entryDy=0;strokeColor=#00FF00;strokeWidth=4;" parent="1" source="leJ9jaA0vuehgDLtJOCW-6" target="leJ9jaA0vuehgDLtJOCW-12" edge="1">
          <mxGeometry relative="1" as="geometry">
            <Array as="points">
              <mxPoint x="360" y="220" />
            </Array>
          </mxGeometry>
        </mxCell>
        <mxCell id="leJ9jaA0vuehgDLtJOCW-6" value="&lt;font color=&quot;#ff1a12&quot; style=&quot;font-size: 20px;&quot;&gt;Régulateur&lt;/font&gt;" style="ellipse;whiteSpace=wrap;html=1;" parent="1" vertex="1">
          <mxGeometry x="180" y="200" width="120" height="40" as="geometry" />
        </mxCell>
        <mxCell id="leJ9jaA0vuehgDLtJOCW-15" style="edgeStyle=orthogonalEdgeStyle;rounded=0;orthogonalLoop=1;jettySize=auto;html=1;entryX=0.5;entryY=0;entryDx=0;entryDy=0;strokeColor=#1FFF2E;strokeWidth=4;" parent="1" source="leJ9jaA0vuehgDLtJOCW-7" target="leJ9jaA0vuehgDLtJOCW-13" edge="1">
          <mxGeometry relative="1" as="geometry" />
        </mxCell>
        <mxCell id="leJ9jaA0vuehgDLtJOCW-7" value="&lt;font color=&quot;#ff1a12&quot; style=&quot;font-size: 20px;&quot;&gt;Régulateur&lt;/font&gt;" style="ellipse;whiteSpace=wrap;html=1;" parent="1" vertex="1">
          <mxGeometry x="520" y="200" width="120" height="40" as="geometry" />
        </mxCell>
        <UserObject label="&lt;font style=&quot;font-size: 20px;&quot;&gt;&lt;a href=&quot;data:page/id,AdwOHvsSAHDBYtzmDALl&quot;&gt;&lt;u style=&quot;color: rgb(255, 41, 25);&quot;&gt;Hardware&lt;/u&gt;&lt;br&gt;&lt;font color=&quot;#0d0201&quot;&gt;Moteur&lt;/font&gt;&lt;/a&gt;&lt;br&gt;&lt;/font&gt;" linkTarget="_blank" id="leJ9jaA0vuehgDLtJOCW-11">
          <mxCell style="rounded=1;whiteSpace=wrap;html=1;points=[[0,0,0,0,0],[0,0.25,0,0,0],[0,0.5,0,0,0],[0,0.75,0,0,0],[0,1,0,0,0],[0.25,0,0,0,0],[0.25,1,0,0,0],[0.5,0,0,0,0],[0.5,1,0,0,0],[0.75,0,0,0,0],[0.75,1,0,0,0],[1,0,0,0,0],[1,0.25,0,0,0],[1,0.5,0,0,0],[1,0.75,0,0,0],[1,1,0,0,0]];" parent="1" vertex="1">
            <mxGeometry x="70" y="280" width="120" height="80" as="geometry" />
          </mxCell>
        </UserObject>
        <mxCell id="leJ9jaA0vuehgDLtJOCW-12" value="&lt;font style=&quot;font-size: 20px;&quot;&gt;&lt;font color=&quot;#ff2919&quot;&gt;&lt;u&gt;Software&lt;/u&gt;&lt;br&gt;&lt;/font&gt;&lt;a href=&quot;data:page/id,veTXQHufmWC4AyhbuzGp&quot;&gt;&lt;font color=&quot;#1c0503&quot;&gt;STM32&lt;/font&gt;&lt;/a&gt;&lt;br&gt;&lt;/font&gt;" style="rounded=1;whiteSpace=wrap;html=1;" parent="1" vertex="1">
          <mxGeometry x="280" y="280" width="160" height="80" as="geometry" />
        </mxCell>
        <mxCell id="leJ9jaA0vuehgDLtJOCW-13" value="&lt;font style=&quot;font-size: 20px;&quot;&gt;&lt;a href=&quot;data:page/id,hsGeyqT_DS2t7nP-Vcc8&quot;&gt;&lt;font color=&quot;#ff2919&quot;&gt;&lt;u&gt;Carte Mère&lt;br&gt;&lt;/u&gt;&lt;/font&gt;&lt;font color=&quot;#000000&quot;&gt;Raspberry Pi 4&lt;/font&gt;&lt;/a&gt;&lt;br&gt;&lt;/font&gt;" style="rounded=1;whiteSpace=wrap;html=1;" parent="1" vertex="1">
          <mxGeometry x="500" y="280" width="160" height="80" as="geometry" />
        </mxCell>
      </root>
    </mxGraphModel>
  </diagram>
  <diagram id="AdwOHvsSAHDBYtzmDALl" name="Actionneur">
    <mxGraphModel grid="1" page="1" gridSize="10" guides="1" tooltips="1" connect="1" arrows="1" fold="1" pageScale="1" pageWidth="827" pageHeight="1169" math="0" shadow="0">
      <root>
        <mxCell id="0" />
        <mxCell id="1" parent="0" />
        <mxCell id="sQX0CcSu04Np5tFG0f31-33" value="" style="rounded=1;whiteSpace=wrap;html=1;fillColor=none;dashed=1;strokeColor=#FF8000;" vertex="1" parent="1">
          <mxGeometry x="33.75" y="510" width="126.25" height="210" as="geometry" />
        </mxCell>
        <mxCell id="sQX0CcSu04Np5tFG0f31-19" value="" style="group" connectable="0" vertex="1" parent="1">
          <mxGeometry x="20" y="170" width="130" height="330" as="geometry" />
        </mxCell>
        <mxCell id="sQX0CcSu04Np5tFG0f31-3" value="" style="rounded=1;whiteSpace=wrap;html=1;fillColor=none;dashed=1;strokeColor=#97D077;" vertex="1" parent="sQX0CcSu04Np5tFG0f31-19">
          <mxGeometry x="10" width="120" height="330" as="geometry" />
        </mxCell>
        <mxCell id="sQX0CcSu04Np5tFG0f31-15" style="edgeStyle=orthogonalEdgeStyle;rounded=0;orthogonalLoop=1;jettySize=auto;html=1;exitX=0;exitY=0.5;exitDx=0;exitDy=0;endArrow=none;endFill=0;startArrow=classic;startFill=1;strokeColor=#0000FF;" edge="1" parent="sQX0CcSu04Np5tFG0f31-19" source="aurdtNQO_3SyIIHmzP0F-10">
          <mxGeometry relative="1" as="geometry">
            <mxPoint y="70" as="targetPoint" />
          </mxGeometry>
        </mxCell>
        <mxCell id="aurdtNQO_3SyIIHmzP0F-10" value="&lt;p style=&quot;line-height: 120%;&quot;&gt;&lt;font style=&quot;font-size: 16px;&quot;&gt;AX12&lt;/font&gt;&lt;span style=&quot;background-color: initial; color: rgb(51, 51, 255); font-size: 10px;&quot;&gt;(faire tourner la pince&amp;nbsp; vers l&#39;espace de stockage)&lt;/span&gt;&lt;/p&gt;" style="rounded=0;whiteSpace=wrap;html=1;strokeColor=#97D077;" vertex="1" parent="sQX0CcSu04Np5tFG0f31-19">
          <mxGeometry x="30" y="30" width="80" height="80" as="geometry" />
        </mxCell>
        <mxCell id="Gmy8cZ3HYuwparw6KXq_-1" value="&lt;font style=&quot;&quot;&gt;&lt;span style=&quot;font-size: 16px;&quot;&gt;Moteurs&lt;/span&gt;&lt;br&gt;&lt;font color=&quot;#3333ff&quot; style=&quot;font-size: 12px;&quot;&gt;(contrôle de la vis sans fin)&lt;/font&gt;&lt;br&gt;&lt;/font&gt;" style="rounded=0;whiteSpace=wrap;html=1;strokeColor=#97D077;" vertex="1" parent="sQX0CcSu04Np5tFG0f31-19">
          <mxGeometry x="30" y="120" width="80" height="50" as="geometry" />
        </mxCell>
        <mxCell id="sQX0CcSu04Np5tFG0f31-5" value="&lt;font color=&quot;#97d077&quot;&gt;Ascenseur à Pot&lt;/font&gt;" style="text;html=1;strokeColor=none;fillColor=none;align=center;verticalAlign=middle;whiteSpace=wrap;rounded=0;" vertex="1" parent="sQX0CcSu04Np5tFG0f31-19">
          <mxGeometry x="10" width="120" height="30" as="geometry" />
        </mxCell>
        <mxCell id="sQX0CcSu04Np5tFG0f31-4" value="&lt;br&gt;Capteur fin de course x2&lt;br&gt;&lt;font color=&quot;#3333ff&quot;&gt;(-Arrivée de l&#39;ascenseur au niveau de l&#39;espace de stockage&amp;nbsp;&lt;br&gt;-Arrivée au niveau de la table)&lt;/font&gt;" style="rounded=0;whiteSpace=wrap;html=1;strokeColor=#97D077;" vertex="1" parent="sQX0CcSu04Np5tFG0f31-19">
          <mxGeometry x="15" y="185" width="110" height="130" as="geometry" />
        </mxCell>
        <mxCell id="9zSFAE0jZmZbSPSmL77b-2" style="edgeStyle=orthogonalEdgeStyle;rounded=0;orthogonalLoop=1;jettySize=auto;html=1;exitX=0.5;exitY=1;exitDx=0;exitDy=0;entryX=0.5;entryY=0;entryDx=0;entryDy=0;strokeColor=#FF1100;" edge="1" parent="1" source="VsosCeYxMgIxgsVkrmj6-1" target="aurdtNQO_3SyIIHmzP0F-8">
          <mxGeometry relative="1" as="geometry">
            <Array as="points">
              <mxPoint x="447" y="550" />
              <mxPoint x="515" y="550" />
            </Array>
          </mxGeometry>
        </mxCell>
        <mxCell id="9zSFAE0jZmZbSPSmL77b-7" style="edgeStyle=orthogonalEdgeStyle;rounded=0;orthogonalLoop=1;jettySize=auto;html=1;exitX=0.25;exitY=1;exitDx=0;exitDy=0;entryX=1;entryY=0.5;entryDx=0;entryDy=0;strokeColor=#FF1100;" edge="1" parent="1" source="VsosCeYxMgIxgsVkrmj6-1" target="9zSFAE0jZmZbSPSmL77b-1">
          <mxGeometry relative="1" as="geometry">
            <Array as="points">
              <mxPoint x="419" y="530" />
            </Array>
          </mxGeometry>
        </mxCell>
        <mxCell id="VsosCeYxMgIxgsVkrmj6-1" value="&lt;font style=&quot;font-size: 13px;&quot;&gt;NUCLEO&amp;nbsp;&lt;br&gt;f46 RE&lt;/font&gt;" style="rounded=1;whiteSpace=wrap;html=1;" vertex="1" parent="1">
          <mxGeometry x="390" y="240" width="115" height="210" as="geometry" />
        </mxCell>
        <mxCell id="VsosCeYxMgIxgsVkrmj6-6" style="edgeStyle=orthogonalEdgeStyle;rounded=0;orthogonalLoop=1;jettySize=auto;html=1;exitX=0.5;exitY=0;exitDx=0;exitDy=0;" edge="1" parent="1" source="VsosCeYxMgIxgsVkrmj6-2">
          <mxGeometry relative="1" as="geometry">
            <mxPoint x="414" y="220" as="targetPoint" />
          </mxGeometry>
        </mxCell>
        <mxCell id="VsosCeYxMgIxgsVkrmj6-2" value="&lt;font style=&quot;font-size: 10px;&quot;&gt;+3v3&lt;/font&gt;" style="text;html=1;strokeColor=none;fillColor=none;align=center;verticalAlign=middle;whiteSpace=wrap;rounded=0;" vertex="1" parent="1">
          <mxGeometry x="386" y="240" width="56" height="20" as="geometry" />
        </mxCell>
        <mxCell id="VsosCeYxMgIxgsVkrmj6-7" style="edgeStyle=orthogonalEdgeStyle;rounded=0;orthogonalLoop=1;jettySize=auto;html=1;exitX=0.5;exitY=0;exitDx=0;exitDy=0;" edge="1" parent="1" source="VsosCeYxMgIxgsVkrmj6-3">
          <mxGeometry relative="1" as="geometry">
            <mxPoint x="440.28571428571433" y="220" as="targetPoint" />
          </mxGeometry>
        </mxCell>
        <mxCell id="VsosCeYxMgIxgsVkrmj6-3" value="&lt;font style=&quot;font-size: 10px;&quot;&gt;+5v&lt;/font&gt;" style="text;html=1;strokeColor=none;fillColor=none;align=center;verticalAlign=middle;whiteSpace=wrap;rounded=0;" vertex="1" parent="1">
          <mxGeometry x="430" y="240" width="20" height="20" as="geometry" />
        </mxCell>
        <mxCell id="VsosCeYxMgIxgsVkrmj6-4" value="&lt;font style=&quot;font-size: 10px;&quot;&gt;Vin&lt;/font&gt;" style="text;html=1;strokeColor=none;fillColor=none;align=center;verticalAlign=middle;whiteSpace=wrap;rounded=0;" vertex="1" parent="1">
          <mxGeometry x="450" y="240" width="48" height="20" as="geometry" />
        </mxCell>
        <mxCell id="VsosCeYxMgIxgsVkrmj6-11" value="" style="edgeStyle=orthogonalEdgeStyle;rounded=0;orthogonalLoop=1;jettySize=auto;html=1;strokeColor=#FF0F0F;" edge="1" parent="1" source="VsosCeYxMgIxgsVkrmj6-8" target="VsosCeYxMgIxgsVkrmj6-9">
          <mxGeometry relative="1" as="geometry" />
        </mxCell>
        <mxCell id="VsosCeYxMgIxgsVkrmj6-8" value="Batteries&lt;br&gt;NiMH 7.2V" style="rounded=0;whiteSpace=wrap;html=1;" vertex="1" parent="1">
          <mxGeometry x="40" y="90" width="100" height="40" as="geometry" />
        </mxCell>
        <mxCell id="VsosCeYxMgIxgsVkrmj6-12" value="" style="edgeStyle=orthogonalEdgeStyle;rounded=0;orthogonalLoop=1;jettySize=auto;html=1;strokeColor=#FF0F0F;" edge="1" parent="1" source="VsosCeYxMgIxgsVkrmj6-9" target="VsosCeYxMgIxgsVkrmj6-10">
          <mxGeometry relative="1" as="geometry" />
        </mxCell>
        <mxCell id="VsosCeYxMgIxgsVkrmj6-9" value="On/off" style="rounded=0;whiteSpace=wrap;html=1;" vertex="1" parent="1">
          <mxGeometry x="170" y="95" width="60" height="30" as="geometry" />
        </mxCell>
        <mxCell id="VsosCeYxMgIxgsVkrmj6-10" value="Régulateur&lt;br&gt;9v 1A" style="rounded=0;whiteSpace=wrap;html=1;" vertex="1" parent="1">
          <mxGeometry x="290" y="90" width="80" height="40" as="geometry" />
        </mxCell>
        <mxCell id="sQX0CcSu04Np5tFG0f31-9" style="edgeStyle=orthogonalEdgeStyle;rounded=0;orthogonalLoop=1;jettySize=auto;html=1;exitX=0.5;exitY=1;exitDx=0;exitDy=0;strokeColor=#FF1C14;" edge="1" parent="1" source="VsosCeYxMgIxgsVkrmj6-16" target="sQX0CcSu04Np5tFG0f31-8">
          <mxGeometry relative="1" as="geometry" />
        </mxCell>
        <mxCell id="VsosCeYxMgIxgsVkrmj6-16" value="&lt;font color=&quot;#ff1100&quot;&gt;15V&lt;/font&gt;" style="text;html=1;strokeColor=none;fillColor=none;align=center;verticalAlign=middle;whiteSpace=wrap;rounded=0;" vertex="1" parent="1">
          <mxGeometry x="230" y="90" width="60" height="20" as="geometry" />
        </mxCell>
        <mxCell id="KoGXzllakbntvv_nMEvE-2" value="&lt;div style=&quot;&quot;&gt;&lt;span style=&quot;background-color: initial;&quot;&gt;x4 Capteur de fin de course&lt;/span&gt;&lt;/div&gt;&lt;div style=&quot;&quot;&gt;&lt;span style=&quot;background-color: initial;&quot;&gt;&lt;font color=&quot;#3333ff&quot;&gt;(faire comme les aspirateurs intelligents, i.e une pièce mécanique qui appuie sur un capteur lorsqu&#39;il touche quelque chose)&lt;/font&gt;&amp;nbsp;&lt;/span&gt;&lt;/div&gt;" style="rounded=0;whiteSpace=wrap;html=1;align=center;" vertex="1" parent="1">
          <mxGeometry x="600" y="354" width="150" height="100" as="geometry" />
        </mxCell>
        <mxCell id="KoGXzllakbntvv_nMEvE-3" value="" style="edgeStyle=orthogonalEdgeStyle;rounded=0;orthogonalLoop=1;jettySize=auto;html=1;entryX=0.5;entryY=0;entryDx=0;entryDy=0;strokeColor=#f20202;exitX=1;exitY=0.5;exitDx=0;exitDy=0;" edge="1" parent="1" source="VsosCeYxMgIxgsVkrmj6-10" target="VsosCeYxMgIxgsVkrmj6-4">
          <mxGeometry relative="1" as="geometry">
            <mxPoint x="360" y="57.5" as="sourcePoint" />
            <mxPoint x="472" y="240" as="targetPoint" />
            <Array as="points">
              <mxPoint x="474" y="110" />
            </Array>
          </mxGeometry>
        </mxCell>
        <mxCell id="VsosCeYxMgIxgsVkrmj6-18" value="&lt;font color=&quot;#ff0f0f&quot;&gt;9V&lt;/font&gt;" style="text;html=1;strokeColor=none;fillColor=none;align=center;verticalAlign=middle;whiteSpace=wrap;rounded=0;" vertex="1" parent="1">
          <mxGeometry x="410" y="95" width="50" height="20" as="geometry" />
        </mxCell>
        <mxCell id="aurdtNQO_3SyIIHmzP0F-3" value="LEDs&lt;br&gt;&lt;font color=&quot;#3333ff&quot;&gt;(positionnés sur la carte principale pour visualiser l&#39;état des capteurs)&lt;/font&gt;" style="rounded=0;whiteSpace=wrap;html=1;" vertex="1" parent="1">
          <mxGeometry x="600" y="264" width="170" height="60" as="geometry" />
        </mxCell>
        <mxCell id="aurdtNQO_3SyIIHmzP0F-4" value="" style="endArrow=classic;html=1;rounded=0;entryX=-0.011;entryY=0.45;entryDx=0;entryDy=0;exitX=1;exitY=0.75;exitDx=0;exitDy=0;strokeColor=#f60404;entryPerimeter=0;" edge="1" parent="1" source="VsosCeYxMgIxgsVkrmj6-1" target="KoGXzllakbntvv_nMEvE-2">
          <mxGeometry width="50" height="50" relative="1" as="geometry">
            <mxPoint x="500" y="460" as="sourcePoint" />
            <mxPoint x="440" y="410" as="targetPoint" />
          </mxGeometry>
        </mxCell>
        <mxCell id="aurdtNQO_3SyIIHmzP0F-5" value="" style="endArrow=classic;html=1;rounded=0;strokeColor=#FF0F0F;exitX=1;exitY=0.25;exitDx=0;exitDy=0;" edge="1" parent="1" source="VsosCeYxMgIxgsVkrmj6-1">
          <mxGeometry width="50" height="50" relative="1" as="geometry">
            <mxPoint x="510" y="330" as="sourcePoint" />
            <mxPoint x="600" y="293" as="targetPoint" />
            <Array as="points" />
          </mxGeometry>
        </mxCell>
        <mxCell id="aurdtNQO_3SyIIHmzP0F-6" value="&lt;div style=&quot;&quot;&gt;&lt;font style=&quot;background-color: initial;&quot;&gt;1 LIDAR / Détection des objets sur la table&amp;nbsp;&lt;/font&gt;&lt;/div&gt;&lt;div style=&quot;&quot;&gt;&lt;font style=&quot;background-color: initial;&quot; color=&quot;#3333ff&quot;&gt;(Modélisation d&#39;un nuage de point, permet d&#39;améliorer la précision)&lt;/font&gt;&lt;span style=&quot;background-color: initial;&quot;&gt;&amp;nbsp;&lt;/span&gt;&lt;br&gt;&lt;/div&gt;" style="rounded=0;whiteSpace=wrap;html=1;align=center;" vertex="1" parent="1">
          <mxGeometry x="600" y="485" width="150" height="100" as="geometry" />
        </mxCell>
        <mxCell id="aurdtNQO_3SyIIHmzP0F-7" value="" style="endArrow=classic;html=1;rounded=0;exitX=0.696;exitY=1.01;exitDx=0;exitDy=0;exitPerimeter=0;strokeColor=#FF0F0F;entryX=0;entryY=0.5;entryDx=0;entryDy=0;" edge="1" parent="1" source="VsosCeYxMgIxgsVkrmj6-1" target="aurdtNQO_3SyIIHmzP0F-6">
          <mxGeometry width="50" height="50" relative="1" as="geometry">
            <mxPoint x="279" y="452" as="sourcePoint" />
            <mxPoint x="252" y="410" as="targetPoint" />
            <Array as="points">
              <mxPoint x="470" y="535" />
            </Array>
          </mxGeometry>
        </mxCell>
        <mxCell id="aurdtNQO_3SyIIHmzP0F-8" value="&lt;div style=&quot;&quot;&gt;&lt;span style=&quot;background-color: initial;&quot;&gt;x16 Capteurs TOF&lt;/span&gt;&lt;/div&gt;&lt;div style=&quot;&quot;&gt;&lt;span style=&quot;background-color: initial;&quot;&gt;&lt;font color=&quot;#050505&quot;&gt;/ Détection des autres robots&lt;/font&gt;&lt;font color=&quot;#3333ff&quot;&gt;(capteurs actifs, envoient de la lumière)&lt;/font&gt;&lt;font color=&quot;#050505&quot;&gt;&amp;nbsp;&lt;/font&gt;&lt;/span&gt;&lt;/div&gt;" style="rounded=0;whiteSpace=wrap;html=1;align=center;" vertex="1" parent="1">
          <mxGeometry x="440" y="570" width="150" height="100" as="geometry" />
        </mxCell>
        <mxCell id="sQX0CcSu04Np5tFG0f31-12" style="edgeStyle=orthogonalEdgeStyle;rounded=0;orthogonalLoop=1;jettySize=auto;html=1;exitX=1;exitY=0.5;exitDx=0;exitDy=0;startArrow=classic;startFill=1;endArrow=none;endFill=0;strokeColor=#97D077;" edge="1" parent="1" source="Gmy8cZ3HYuwparw6KXq_-1">
          <mxGeometry relative="1" as="geometry">
            <mxPoint x="260" y="270" as="targetPoint" />
          </mxGeometry>
        </mxCell>
        <mxCell id="sQX0CcSu04Np5tFG0f31-14" style="edgeStyle=orthogonalEdgeStyle;rounded=0;orthogonalLoop=1;jettySize=auto;html=1;exitX=0;exitY=0.5;exitDx=0;exitDy=0;startArrow=classic;startFill=1;endArrow=none;endFill=0;strokeColor=#0000FF;" edge="1" parent="1" source="Gmy8cZ3HYuwparw6KXq_-1">
          <mxGeometry relative="1" as="geometry">
            <mxPoint x="20" y="160" as="targetPoint" />
            <mxPoint x="60" y="315" as="sourcePoint" />
            <Array as="points">
              <mxPoint x="21" y="315" />
              <mxPoint x="21" y="160" />
            </Array>
          </mxGeometry>
        </mxCell>
        <mxCell id="Gmy8cZ3HYuwparw6KXq_-5" value="" style="endArrow=classic;html=1;rounded=0;entryX=1;entryY=0.5;entryDx=0;entryDy=0;exitX=0;exitY=0.143;exitDx=0;exitDy=0;exitPerimeter=0;startArrow=classic;startFill=1;strokeColor=#97D077;" edge="1" parent="1" source="VsosCeYxMgIxgsVkrmj6-1" target="aurdtNQO_3SyIIHmzP0F-10">
          <mxGeometry width="50" height="50" relative="1" as="geometry">
            <mxPoint x="330" y="320" as="sourcePoint" />
            <mxPoint x="390" y="350" as="targetPoint" />
            <Array as="points">
              <mxPoint x="260" y="270" />
              <mxPoint x="260" y="240" />
            </Array>
          </mxGeometry>
        </mxCell>
        <mxCell id="sQX0CcSu04Np5tFG0f31-7" style="edgeStyle=orthogonalEdgeStyle;rounded=0;orthogonalLoop=1;jettySize=auto;html=1;exitX=1;exitY=0.5;exitDx=0;exitDy=0;entryX=0;entryY=0.25;entryDx=0;entryDy=0;strokeColor=#97D077;" edge="1" parent="1" source="sQX0CcSu04Np5tFG0f31-4" target="VsosCeYxMgIxgsVkrmj6-1">
          <mxGeometry relative="1" as="geometry">
            <Array as="points">
              <mxPoint x="170" y="420" />
              <mxPoint x="170" y="330" />
              <mxPoint x="280" y="330" />
              <mxPoint x="280" y="293" />
            </Array>
          </mxGeometry>
        </mxCell>
        <mxCell id="sQX0CcSu04Np5tFG0f31-10" style="edgeStyle=orthogonalEdgeStyle;rounded=0;orthogonalLoop=1;jettySize=auto;html=1;exitX=1;exitY=0.5;exitDx=0;exitDy=0;strokeColor=#0000CC;" edge="1" parent="1" source="sQX0CcSu04Np5tFG0f31-8">
          <mxGeometry relative="1" as="geometry">
            <mxPoint x="360" y="160.16666666666674" as="targetPoint" />
          </mxGeometry>
        </mxCell>
        <mxCell id="sQX0CcSu04Np5tFG0f31-8" value="Régulateur&lt;br&gt;9v 5A" style="rounded=0;whiteSpace=wrap;html=1;" vertex="1" parent="1">
          <mxGeometry x="220" y="140" width="80" height="40" as="geometry" />
        </mxCell>
        <mxCell id="sQX0CcSu04Np5tFG0f31-11" value="&lt;font color=&quot;#2200ff&quot;&gt;Actionneur 9v&lt;/font&gt;" style="text;html=1;strokeColor=none;fillColor=none;align=center;verticalAlign=middle;whiteSpace=wrap;rounded=0;" vertex="1" parent="1">
          <mxGeometry x="306" y="130" width="80" height="30" as="geometry" />
        </mxCell>
        <mxCell id="sQX0CcSu04Np5tFG0f31-16" value="&lt;font color=&quot;#2200ff&quot;&gt;Actionneur 9v&lt;/font&gt;" style="text;html=1;strokeColor=none;fillColor=none;align=center;verticalAlign=middle;whiteSpace=wrap;rounded=0;" vertex="1" parent="1">
          <mxGeometry y="130" width="80" height="30" as="geometry" />
        </mxCell>
        <mxCell id="F1cHiJKroL9K9-33qimy-1" value="16 pins" style="text;html=1;align=center;verticalAlign=middle;resizable=0;points=[];autosize=1;strokeColor=none;fillColor=none;rotation=0;" vertex="1" parent="1">
          <mxGeometry x="520" y="270" width="60" height="30" as="geometry" />
        </mxCell>
        <mxCell id="sQX0CcSu04Np5tFG0f31-20" value="1 pins" style="text;html=1;strokeColor=none;fillColor=none;align=center;verticalAlign=middle;whiteSpace=wrap;rounded=0;" vertex="1" parent="1">
          <mxGeometry x="180" y="221" width="50" height="19" as="geometry" />
        </mxCell>
        <mxCell id="sQX0CcSu04Np5tFG0f31-21" value="2 pins" style="text;html=1;strokeColor=none;fillColor=none;align=center;verticalAlign=middle;whiteSpace=wrap;rounded=0;" vertex="1" parent="1">
          <mxGeometry x="175" y="290" width="50" height="20" as="geometry" />
        </mxCell>
        <mxCell id="sQX0CcSu04Np5tFG0f31-23" value="2 pins" style="text;html=1;strokeColor=none;fillColor=none;align=center;verticalAlign=middle;whiteSpace=wrap;rounded=0;" vertex="1" parent="1">
          <mxGeometry x="290" y="280" width="50" height="10" as="geometry" />
        </mxCell>
        <mxCell id="sQX0CcSu04Np5tFG0f31-27" style="edgeStyle=orthogonalEdgeStyle;rounded=0;orthogonalLoop=1;jettySize=auto;html=1;exitX=1;exitY=0.5;exitDx=0;exitDy=0;entryX=0;entryY=0.5;entryDx=0;entryDy=0;startArrow=classic;startFill=1;" edge="1" parent="1" source="sQX0CcSu04Np5tFG0f31-24" target="VsosCeYxMgIxgsVkrmj6-1">
          <mxGeometry relative="1" as="geometry" />
        </mxCell>
        <mxCell id="sQX0CcSu04Np5tFG0f31-36" style="edgeStyle=orthogonalEdgeStyle;rounded=0;orthogonalLoop=1;jettySize=auto;html=1;exitX=0;exitY=0.5;exitDx=0;exitDy=0;strokeColor=#2200FF;startArrow=classic;startFill=1;endArrow=none;endFill=0;" edge="1" parent="1" source="sQX0CcSu04Np5tFG0f31-24">
          <mxGeometry relative="1" as="geometry">
            <mxPoint x="200" y="360" as="targetPoint" />
            <Array as="points">
              <mxPoint x="200" y="389" />
            </Array>
          </mxGeometry>
        </mxCell>
        <mxCell id="sQX0CcSu04Np5tFG0f31-24" value="&lt;p style=&quot;line-height: 120%;&quot;&gt;&lt;font style=&quot;font-size: 16px;&quot;&gt;AX12&lt;/font&gt;&lt;/p&gt;&lt;p style=&quot;line-height: 120%;&quot;&gt;&lt;span style=&quot;background-color: initial; color: rgb(51, 51, 255); font-size: 10px;&quot;&gt;(faire tourner le stockage)&lt;/span&gt;&lt;/p&gt;" style="rounded=0;whiteSpace=wrap;html=1;" vertex="1" parent="1">
          <mxGeometry x="220" y="354" width="70" height="70" as="geometry" />
        </mxCell>
        <mxCell id="sQX0CcSu04Np5tFG0f31-26" value="4 pins" style="text;html=1;strokeColor=none;fillColor=none;align=center;verticalAlign=middle;whiteSpace=wrap;rounded=0;" vertex="1" parent="1">
          <mxGeometry x="336" y="325.5" width="50" height="19" as="geometry" />
        </mxCell>
        <mxCell id="sQX0CcSu04Np5tFG0f31-34" style="edgeStyle=orthogonalEdgeStyle;rounded=0;orthogonalLoop=1;jettySize=auto;html=1;exitX=1;exitY=0.5;exitDx=0;exitDy=0;entryX=0;entryY=0.75;entryDx=0;entryDy=0;startArrow=classic;startFill=1;strokeColor=#FF8000;" edge="1" parent="1" source="sQX0CcSu04Np5tFG0f31-28" target="VsosCeYxMgIxgsVkrmj6-1">
          <mxGeometry relative="1" as="geometry">
            <Array as="points">
              <mxPoint x="180" y="570" />
              <mxPoint x="180" y="440" />
              <mxPoint x="310" y="440" />
              <mxPoint x="310" y="397" />
            </Array>
          </mxGeometry>
        </mxCell>
        <mxCell id="sQX0CcSu04Np5tFG0f31-44" style="edgeStyle=orthogonalEdgeStyle;rounded=0;orthogonalLoop=1;jettySize=auto;html=1;exitX=0;exitY=0.5;exitDx=0;exitDy=0;endArrow=none;endFill=0;startArrow=classic;startFill=1;strokeColor=#2200FF;" edge="1" parent="1" source="sQX0CcSu04Np5tFG0f31-28">
          <mxGeometry relative="1" as="geometry">
            <mxPoint x="9.999999999999886" y="570.1034482758621" as="targetPoint" />
          </mxGeometry>
        </mxCell>
        <mxCell id="sQX0CcSu04Np5tFG0f31-28" value="&lt;p style=&quot;line-height: 120%;&quot;&gt;&lt;font style=&quot;font-size: 16px;&quot;&gt;AX12&lt;/font&gt;&lt;/p&gt;&lt;p style=&quot;line-height: 120%;&quot;&gt;&lt;span style=&quot;background-color: initial; color: rgb(51, 51, 255); font-size: 10px;&quot;&gt;Pince du robot&lt;/span&gt;&lt;/p&gt;" style="rounded=0;whiteSpace=wrap;html=1;strokeColor=#FF8000;" vertex="1" parent="1">
          <mxGeometry x="51.25" y="540" width="85" height="60" as="geometry" />
        </mxCell>
        <mxCell id="sQX0CcSu04Np5tFG0f31-43" style="edgeStyle=orthogonalEdgeStyle;rounded=0;orthogonalLoop=1;jettySize=auto;html=1;exitX=0;exitY=0.5;exitDx=0;exitDy=0;startArrow=classic;startFill=1;endArrow=none;endFill=0;strokeColor=#2200FF;" edge="1" parent="1" source="sQX0CcSu04Np5tFG0f31-29">
          <mxGeometry relative="1" as="geometry">
            <mxPoint x="9.999999999999886" y="520" as="targetPoint" />
          </mxGeometry>
        </mxCell>
        <mxCell id="sQX0CcSu04Np5tFG0f31-29" value="&lt;font style=&quot;&quot;&gt;&lt;span style=&quot;font-size: 16px;&quot;&gt;Moteurs&lt;/span&gt;&lt;br&gt;&lt;font color=&quot;#3333ff&quot; style=&quot;font-size: 12px;&quot;&gt;(monter/descente robot)&lt;/font&gt;&lt;br&gt;&lt;/font&gt;" style="rounded=0;whiteSpace=wrap;html=1;strokeColor=#FF8000;" vertex="1" parent="1">
          <mxGeometry x="43.75" y="610" width="100" height="50" as="geometry" />
        </mxCell>
        <mxCell id="sQX0CcSu04Np5tFG0f31-32" value="&lt;font color=&quot;#ff8000&quot;&gt;Bras dépose Pot&lt;/font&gt;" style="text;html=1;strokeColor=none;fillColor=none;align=center;verticalAlign=middle;whiteSpace=wrap;rounded=0;" vertex="1" parent="1">
          <mxGeometry x="47.5" y="510" width="92.5" height="30" as="geometry" />
        </mxCell>
        <mxCell id="sQX0CcSu04Np5tFG0f31-35" style="edgeStyle=orthogonalEdgeStyle;rounded=0;orthogonalLoop=1;jettySize=auto;html=1;exitX=1;exitY=0.5;exitDx=0;exitDy=0;entryX=-0.006;entryY=0.83;entryDx=0;entryDy=0;entryPerimeter=0;strokeColor=#FF8000;startArrow=classic;startFill=1;endArrow=none;endFill=0;" edge="1" parent="1" source="sQX0CcSu04Np5tFG0f31-29" target="VsosCeYxMgIxgsVkrmj6-1">
          <mxGeometry relative="1" as="geometry">
            <Array as="points">
              <mxPoint x="190" y="635" />
              <mxPoint x="190" y="450" />
              <mxPoint x="320" y="450" />
              <mxPoint x="320" y="414" />
            </Array>
          </mxGeometry>
        </mxCell>
        <mxCell id="sQX0CcSu04Np5tFG0f31-37" value="&lt;font color=&quot;#2200ff&quot;&gt;Actionneur 9v&lt;/font&gt;" style="text;html=1;strokeColor=none;fillColor=none;align=center;verticalAlign=middle;whiteSpace=wrap;rounded=0;" vertex="1" parent="1">
          <mxGeometry x="175" y="342.75" width="90" height="4.5" as="geometry" />
        </mxCell>
        <mxCell id="sQX0CcSu04Np5tFG0f31-41" value="1 pins" style="text;html=1;strokeColor=none;fillColor=none;align=center;verticalAlign=middle;whiteSpace=wrap;rounded=0;" vertex="1" parent="1">
          <mxGeometry x="175" y="430" width="50" height="10" as="geometry" />
        </mxCell>
        <mxCell id="sQX0CcSu04Np5tFG0f31-42" value="2 pins" style="text;html=1;strokeColor=none;fillColor=none;align=center;verticalAlign=middle;whiteSpace=wrap;rounded=0;" vertex="1" parent="1">
          <mxGeometry x="225" y="440" width="45" height="10" as="geometry" />
        </mxCell>
        <mxCell id="9zSFAE0jZmZbSPSmL77b-1" value="&lt;font color=&quot;#ff1100&quot;&gt;&amp;nbsp;2 capteur de proximité&lt;br&gt;+ Capteur de couleur&lt;/font&gt;" style="rounded=0;whiteSpace=wrap;html=1;align=center;" vertex="1" parent="1">
          <mxGeometry x="306" y="490" width="80" height="80" as="geometry" />
        </mxCell>
        <mxCell id="9zSFAE0jZmZbSPSmL77b-3" value="&lt;font style=&quot;&quot;&gt;&lt;span style=&quot;font-size: 16px;&quot;&gt;Capteur de proximité&lt;/span&gt;&lt;br&gt;&lt;/font&gt;" style="rounded=0;whiteSpace=wrap;html=1;strokeColor=#FF8000;" vertex="1" parent="1">
          <mxGeometry x="43.75" y="670" width="96.25" height="40" as="geometry" />
        </mxCell>
        <mxCell id="9zSFAE0jZmZbSPSmL77b-4" style="edgeStyle=orthogonalEdgeStyle;rounded=0;orthogonalLoop=1;jettySize=auto;html=1;entryX=-0.007;entryY=0.878;entryDx=0;entryDy=0;entryPerimeter=0;strokeColor=#FF8000;" edge="1" parent="1" source="9zSFAE0jZmZbSPSmL77b-3" target="VsosCeYxMgIxgsVkrmj6-1">
          <mxGeometry relative="1" as="geometry">
            <Array as="points">
              <mxPoint x="200" y="690" />
              <mxPoint x="200" y="460" />
              <mxPoint x="330" y="460" />
              <mxPoint x="330" y="424" />
            </Array>
          </mxGeometry>
        </mxCell>
        <mxCell id="9zSFAE0jZmZbSPSmL77b-6" value="2 pins" style="text;html=1;strokeColor=none;fillColor=none;align=center;verticalAlign=middle;whiteSpace=wrap;rounded=0;" vertex="1" parent="1">
          <mxGeometry x="261" y="450" width="45" height="10" as="geometry" />
        </mxCell>
        <mxCell id="ixzdVRDaquqOyUJrkGZx-1" value="" style="rounded=1;whiteSpace=wrap;html=1;fillColor=none;dashed=1;strokeColor=#00fffb;" vertex="1" parent="1">
          <mxGeometry x="229.82" y="585" width="120.18" height="215" as="geometry" />
        </mxCell>
        <mxCell id="ixzdVRDaquqOyUJrkGZx-3" value="&lt;font style=&quot;&quot;&gt;&lt;span style=&quot;font-size: 16px;&quot;&gt;Moteur&lt;/span&gt;&lt;br&gt;&lt;font color=&quot;#3333ff&quot; style=&quot;font-size: 12px;&quot;&gt;(monter/taper)&lt;/font&gt;&lt;br&gt;&lt;/font&gt;" style="rounded=0;whiteSpace=wrap;html=1;strokeColor=#19edf0;" vertex="1" parent="1">
          <mxGeometry x="238.88" y="640" width="100" height="50" as="geometry" />
        </mxCell>
        <mxCell id="ixzdVRDaquqOyUJrkGZx-4" value="&lt;font color=&quot;#1bd1de&quot;&gt;Bras pour tourner les panneaux solaires&amp;nbsp;&lt;/font&gt;" style="text;html=1;strokeColor=none;fillColor=none;align=center;verticalAlign=middle;whiteSpace=wrap;rounded=0;" vertex="1" parent="1">
          <mxGeometry x="232.94" y="595" width="118.12" height="40" as="geometry" />
        </mxCell>
        <mxCell id="ixzdVRDaquqOyUJrkGZx-5" value="&lt;font style=&quot;&quot;&gt;&lt;span style=&quot;font-size: 16px;&quot;&gt;Roue crantée&amp;nbsp;&lt;/span&gt;&lt;br&gt;&lt;/font&gt;" style="rounded=0;whiteSpace=wrap;html=1;strokeColor=#1199bb;" vertex="1" parent="1">
          <mxGeometry x="240.76" y="700" width="96.25" height="40" as="geometry" />
        </mxCell>
        <mxCell id="ixzdVRDaquqOyUJrkGZx-6" value="&lt;font style=&quot;&quot;&gt;&lt;span style=&quot;font-size: 16px;&quot;&gt;2 crémaillères&amp;nbsp;&amp;nbsp;&lt;/span&gt;&lt;br&gt;&lt;/font&gt;" style="rounded=0;whiteSpace=wrap;html=1;strokeColor=#23a2a4;" vertex="1" parent="1">
          <mxGeometry x="242" y="750" width="96.25" height="40" as="geometry" />
        </mxCell>
        <mxCell id="ixzdVRDaquqOyUJrkGZx-9" style="edgeStyle=orthogonalEdgeStyle;rounded=0;orthogonalLoop=1;jettySize=auto;html=1;strokeColor=#1dc9bd;exitX=0.5;exitY=0;exitDx=0;exitDy=0;" edge="1" parent="1" source="ixzdVRDaquqOyUJrkGZx-1">
          <mxGeometry relative="1" as="geometry">
            <Array as="points">
              <mxPoint x="293" y="470" />
              <mxPoint x="340" y="470" />
              <mxPoint x="340" y="434" />
            </Array>
            <mxPoint x="150" y="700" as="sourcePoint" />
            <mxPoint x="390" y="434" as="targetPoint" />
          </mxGeometry>
        </mxCell>
      </root>
    </mxGraphModel>
  </diagram>
  <diagram id="veTXQHufmWC4AyhbuzGp" name="Asservissement_ramassage">
    <mxGraphModel grid="1" page="1" gridSize="10" guides="1" tooltips="1" connect="1" arrows="1" fold="1" pageScale="1" pageWidth="827" pageHeight="1169" math="0" shadow="0">
      <root>
        <mxCell id="0" />
        <mxCell id="1" parent="0" />
        <mxCell id="BrIM-A4RQaoyk245YDhz-3" style="edgeStyle=orthogonalEdgeStyle;rounded=0;orthogonalLoop=1;jettySize=auto;html=1;entryX=0.5;entryY=0;entryDx=0;entryDy=0;" edge="1" parent="1" source="BrIM-A4RQaoyk245YDhz-1" target="BrIM-A4RQaoyk245YDhz-2">
          <mxGeometry relative="1" as="geometry" />
        </mxCell>
        <mxCell id="BrIM-A4RQaoyk245YDhz-1" value="Ramassage&amp;nbsp;&lt;br&gt;des objets" style="shape=trapezoid;perimeter=trapezoidPerimeter;whiteSpace=wrap;html=1;fixedSize=1;" vertex="1" parent="1">
          <mxGeometry x="130" y="40" width="120" height="60" as="geometry" />
        </mxCell>
        <mxCell id="BrIM-A4RQaoyk245YDhz-5" style="edgeStyle=orthogonalEdgeStyle;rounded=0;orthogonalLoop=1;jettySize=auto;html=1;" edge="1" parent="1" source="BrIM-A4RQaoyk245YDhz-2" target="BrIM-A4RQaoyk245YDhz-4">
          <mxGeometry relative="1" as="geometry" />
        </mxCell>
        <mxCell id="BrIM-A4RQaoyk245YDhz-2" value="Détection d&#39;un objet" style="shape=parallelogram;perimeter=parallelogramPerimeter;whiteSpace=wrap;html=1;fixedSize=1;" vertex="1" parent="1">
          <mxGeometry x="110" y="130" width="160" height="40" as="geometry" />
        </mxCell>
        <mxCell id="BrIM-A4RQaoyk245YDhz-6" style="edgeStyle=orthogonalEdgeStyle;rounded=0;orthogonalLoop=1;jettySize=auto;html=1;exitX=1;exitY=0.5;exitDx=0;exitDy=0;" edge="1" parent="1" source="BrIM-A4RQaoyk245YDhz-4">
          <mxGeometry relative="1" as="geometry">
            <mxPoint x="190" y="110" as="targetPoint" />
            <Array as="points">
              <mxPoint x="290" y="220" />
              <mxPoint x="290" y="110" />
            </Array>
          </mxGeometry>
        </mxCell>
        <mxCell id="POfh_JaIX2mfIjJhbox0-2" value="" style="edgeStyle=orthogonalEdgeStyle;rounded=0;orthogonalLoop=1;jettySize=auto;html=1;" edge="1" parent="1" source="BrIM-A4RQaoyk245YDhz-4" target="POfh_JaIX2mfIjJhbox0-1">
          <mxGeometry relative="1" as="geometry" />
        </mxCell>
        <mxCell id="BrIM-A4RQaoyk245YDhz-4" value="Présent" style="rhombus;whiteSpace=wrap;html=1;" vertex="1" parent="1">
          <mxGeometry x="155" y="190" width="70" height="60" as="geometry" />
        </mxCell>
        <mxCell id="BrIM-A4RQaoyk245YDhz-7" value="non" style="text;html=1;strokeColor=none;fillColor=none;align=center;verticalAlign=middle;whiteSpace=wrap;rounded=0;" vertex="1" parent="1">
          <mxGeometry x="220" y="210" width="40" height="10" as="geometry" />
        </mxCell>
        <mxCell id="BrIM-A4RQaoyk245YDhz-16" value="oui" style="text;html=1;strokeColor=none;fillColor=none;align=center;verticalAlign=middle;whiteSpace=wrap;rounded=0;" vertex="1" parent="1">
          <mxGeometry x="185" y="260" width="40" height="10" as="geometry" />
        </mxCell>
        <mxCell id="POfh_JaIX2mfIjJhbox0-23" value="" style="edgeStyle=orthogonalEdgeStyle;rounded=0;orthogonalLoop=1;jettySize=auto;html=1;" edge="1" parent="1" source="POfh_JaIX2mfIjJhbox0-1" target="POfh_JaIX2mfIjJhbox0-19">
          <mxGeometry relative="1" as="geometry" />
        </mxCell>
        <mxCell id="-JMU76Fg918SVzfkDmiA-12" style="edgeStyle=orthogonalEdgeStyle;rounded=0;orthogonalLoop=1;jettySize=auto;html=1;entryX=0.5;entryY=0;entryDx=0;entryDy=0;strokeColor=#B266FF;" edge="1" parent="1" source="POfh_JaIX2mfIjJhbox0-1" target="POfh_JaIX2mfIjJhbox0-18">
          <mxGeometry relative="1" as="geometry" />
        </mxCell>
        <mxCell id="POfh_JaIX2mfIjJhbox0-1" value="Plante&amp;nbsp;" style="rhombus;whiteSpace=wrap;html=1;" vertex="1" parent="1">
          <mxGeometry x="157.5" y="280" width="65" height="40" as="geometry" />
        </mxCell>
        <mxCell id="POfh_JaIX2mfIjJhbox0-5" value="oui" style="text;html=1;strokeColor=none;fillColor=none;align=center;verticalAlign=middle;whiteSpace=wrap;rounded=0;" vertex="1" parent="1">
          <mxGeometry x="180" y="320" width="40" height="10" as="geometry" />
        </mxCell>
        <mxCell id="POfh_JaIX2mfIjJhbox0-13" value="non" style="text;html=1;strokeColor=none;fillColor=none;align=center;verticalAlign=middle;whiteSpace=wrap;rounded=0;" vertex="1" parent="1">
          <mxGeometry x="120" y="290" width="40" height="10" as="geometry" />
        </mxCell>
        <mxCell id="POfh_JaIX2mfIjJhbox0-18" value="Objet = pot" style="rounded=1;whiteSpace=wrap;html=1;arcSize=0;strokeColor=#B266FF;" vertex="1" parent="1">
          <mxGeometry x="17.5" y="500" width="102.5" height="20" as="geometry" />
        </mxCell>
        <mxCell id="POfh_JaIX2mfIjJhbox0-26" value="" style="edgeStyle=orthogonalEdgeStyle;rounded=0;orthogonalLoop=1;jettySize=auto;html=1;entryX=0.5;entryY=0;entryDx=0;entryDy=0;" edge="1" parent="1" source="POfh_JaIX2mfIjJhbox0-19" target="g1vSutqYQsQFPhI-T5Rt-24">
          <mxGeometry relative="1" as="geometry">
            <mxPoint x="190.0999999999999" y="382.5799999999999" as="targetPoint" />
          </mxGeometry>
        </mxCell>
        <mxCell id="POfh_JaIX2mfIjJhbox0-19" value="Objet = Plante" style="rounded=1;whiteSpace=wrap;html=1;" vertex="1" parent="1">
          <mxGeometry x="138.75" y="340" width="102.5" height="20" as="geometry" />
        </mxCell>
        <mxCell id="g1vSutqYQsQFPhI-T5Rt-1" value="" style="edgeStyle=orthogonalEdgeStyle;rounded=0;orthogonalLoop=1;jettySize=auto;html=1;" edge="1" parent="1" source="g1vSutqYQsQFPhI-T5Rt-2" target="g1vSutqYQsQFPhI-T5Rt-4">
          <mxGeometry relative="1" as="geometry" />
        </mxCell>
        <mxCell id="g1vSutqYQsQFPhI-T5Rt-2" value="Vérrouillage de la pince" style="rounded=1;whiteSpace=wrap;html=1;" vertex="1" parent="1">
          <mxGeometry x="262.5" y="850" width="140" height="30" as="geometry" />
        </mxCell>
        <mxCell id="h9Teyv5puydHdtFZyPq9-2" style="edgeStyle=orthogonalEdgeStyle;rounded=0;orthogonalLoop=1;jettySize=auto;html=1;entryX=0.5;entryY=0;entryDx=0;entryDy=0;" edge="1" parent="1" source="g1vSutqYQsQFPhI-T5Rt-4" target="g1vSutqYQsQFPhI-T5Rt-13">
          <mxGeometry relative="1" as="geometry" />
        </mxCell>
        <mxCell id="g1vSutqYQsQFPhI-T5Rt-4" value="Montée de la pince avec l&#39;objet grâce à l&#39;ascenseur&amp;nbsp;" style="rounded=1;whiteSpace=wrap;html=1;" vertex="1" parent="1">
          <mxGeometry x="263.13" y="900" width="140" height="40" as="geometry" />
        </mxCell>
        <mxCell id="-JMU76Fg918SVzfkDmiA-52" style="edgeStyle=orthogonalEdgeStyle;rounded=0;orthogonalLoop=1;jettySize=auto;html=1;entryX=0.5;entryY=0;entryDx=0;entryDy=0;strokeColor=#00FFFF;" edge="1" parent="1" source="g1vSutqYQsQFPhI-T5Rt-7" target="-JMU76Fg918SVzfkDmiA-51">
          <mxGeometry relative="1" as="geometry">
            <Array as="points">
              <mxPoint x="270" y="593" />
            </Array>
          </mxGeometry>
        </mxCell>
        <mxCell id="-JMU76Fg918SVzfkDmiA-56" style="edgeStyle=orthogonalEdgeStyle;rounded=0;orthogonalLoop=1;jettySize=auto;html=1;entryX=0.444;entryY=0.081;entryDx=0;entryDy=0;entryPerimeter=0;strokeColor=#006600;" edge="1" parent="1" source="g1vSutqYQsQFPhI-T5Rt-7" target="-JMU76Fg918SVzfkDmiA-55">
          <mxGeometry relative="1" as="geometry">
            <mxPoint x="190" y="680" as="targetPoint" />
          </mxGeometry>
        </mxCell>
        <mxCell id="g1vSutqYQsQFPhI-T5Rt-7" value="Emplacement&lt;br&gt;&amp;nbsp;vide disponible" style="rhombus;whiteSpace=wrap;html=1;strokeColor=#006600;" vertex="1" parent="1">
          <mxGeometry x="131.8" y="540" width="116.4" height="80" as="geometry" />
        </mxCell>
        <mxCell id="g1vSutqYQsQFPhI-T5Rt-9" value="non" style="text;html=1;strokeColor=none;fillColor=none;align=center;verticalAlign=middle;whiteSpace=wrap;rounded=0;" vertex="1" parent="1">
          <mxGeometry x="243.13" y="581.52" width="20" height="10" as="geometry" />
        </mxCell>
        <mxCell id="g1vSutqYQsQFPhI-T5Rt-12" value="" style="edgeStyle=orthogonalEdgeStyle;rounded=0;orthogonalLoop=1;jettySize=auto;html=1;" edge="1" parent="1" source="NL0V0TXCsaVMtrq0Drly-1" target="g1vSutqYQsQFPhI-T5Rt-16">
          <mxGeometry relative="1" as="geometry" />
        </mxCell>
        <mxCell id="h9Teyv5puydHdtFZyPq9-3" style="edgeStyle=orthogonalEdgeStyle;rounded=0;orthogonalLoop=1;jettySize=auto;html=1;entryX=1;entryY=0.5;entryDx=0;entryDy=0;endArrow=none;endFill=0;" edge="1" parent="1" source="g1vSutqYQsQFPhI-T5Rt-13" target="g1vSutqYQsQFPhI-T5Rt-13">
          <mxGeometry relative="1" as="geometry">
            <mxPoint x="400" y="1000" as="targetPoint" />
          </mxGeometry>
        </mxCell>
        <mxCell id="g1vSutqYQsQFPhI-T5Rt-13" value="Arrivée au niveau &lt;br&gt;de l&#39;espace &lt;br&gt;de stockage" style="rhombus;whiteSpace=wrap;html=1;" vertex="1" parent="1">
          <mxGeometry x="261.56" y="1010" width="143.13" height="90" as="geometry" />
        </mxCell>
        <mxCell id="g1vSutqYQsQFPhI-T5Rt-14" value="non" style="text;html=1;strokeColor=none;fillColor=none;align=center;verticalAlign=middle;whiteSpace=wrap;rounded=0;" vertex="1" parent="1">
          <mxGeometry x="399.38" y="1020" width="20" height="20" as="geometry" />
        </mxCell>
        <mxCell id="g1vSutqYQsQFPhI-T5Rt-15" value="oui" style="text;html=1;strokeColor=none;fillColor=none;align=center;verticalAlign=middle;whiteSpace=wrap;rounded=0;" vertex="1" parent="1">
          <mxGeometry x="336.25" y="1090" width="18.75" height="30" as="geometry" />
        </mxCell>
        <mxCell id="g1vSutqYQsQFPhI-T5Rt-16" value="fin stockage" style="ellipse;whiteSpace=wrap;html=1;" vertex="1" parent="1">
          <mxGeometry x="283.13" y="1200" width="100" height="35" as="geometry" />
        </mxCell>
        <mxCell id="-JMU76Fg918SVzfkDmiA-41" value="" style="edgeStyle=orthogonalEdgeStyle;rounded=0;orthogonalLoop=1;jettySize=auto;html=1;strokeColor=#00FF00;" edge="1" parent="1" source="g1vSutqYQsQFPhI-T5Rt-18" target="-JMU76Fg918SVzfkDmiA-40">
          <mxGeometry relative="1" as="geometry" />
        </mxCell>
        <mxCell id="g1vSutqYQsQFPhI-T5Rt-18" value="Type= Fragile" style="rounded=1;whiteSpace=wrap;html=1;strokeColor=#00FF00;" vertex="1" parent="1">
          <mxGeometry x="445.01" y="480" width="102.5" height="20" as="geometry" />
        </mxCell>
        <mxCell id="g1vSutqYQsQFPhI-T5Rt-19" value="Type=Rigide&amp;nbsp;" style="rounded=1;whiteSpace=wrap;html=1;strokeColor=#006600;" vertex="1" parent="1">
          <mxGeometry x="138.75" y="500" width="102.5" height="20" as="geometry" />
        </mxCell>
        <mxCell id="-JMU76Fg918SVzfkDmiA-5" value="" style="edgeStyle=orthogonalEdgeStyle;rounded=0;orthogonalLoop=1;jettySize=auto;html=1;" edge="1" parent="1" source="g1vSutqYQsQFPhI-T5Rt-24" target="-JMU76Fg918SVzfkDmiA-4">
          <mxGeometry relative="1" as="geometry" />
        </mxCell>
        <mxCell id="g1vSutqYQsQFPhI-T5Rt-24" value="Détection du type de plante" style="shape=parallelogram;perimeter=parallelogramPerimeter;whiteSpace=wrap;html=1;fixedSize=1;" vertex="1" parent="1">
          <mxGeometry x="100.01" y="380" width="180" height="40" as="geometry" />
        </mxCell>
        <mxCell id="g1vSutqYQsQFPhI-T5Rt-25" value="" style="endArrow=classic;html=1;rounded=0;exitX=0.5;exitY=1;exitDx=0;exitDy=0;entryX=0.5;entryY=0;entryDx=0;entryDy=0;strokeColor=#006600;" edge="1" parent="1" source="g1vSutqYQsQFPhI-T5Rt-19" target="g1vSutqYQsQFPhI-T5Rt-7">
          <mxGeometry width="50" height="50" relative="1" as="geometry">
            <mxPoint x="410" y="650" as="sourcePoint" />
            <mxPoint x="460" y="600" as="targetPoint" />
          </mxGeometry>
        </mxCell>
        <mxCell id="-JMU76Fg918SVzfkDmiA-7" style="edgeStyle=orthogonalEdgeStyle;rounded=0;orthogonalLoop=1;jettySize=auto;html=1;strokeColor=#00FF00;" edge="1" parent="1" source="-JMU76Fg918SVzfkDmiA-4" target="g1vSutqYQsQFPhI-T5Rt-18">
          <mxGeometry relative="1" as="geometry">
            <Array as="points">
              <mxPoint x="496" y="460" />
            </Array>
          </mxGeometry>
        </mxCell>
        <mxCell id="-JMU76Fg918SVzfkDmiA-8" style="edgeStyle=orthogonalEdgeStyle;rounded=0;orthogonalLoop=1;jettySize=auto;html=1;entryX=0.5;entryY=0;entryDx=0;entryDy=0;strokeColor=#006600;" edge="1" parent="1" source="-JMU76Fg918SVzfkDmiA-4" target="g1vSutqYQsQFPhI-T5Rt-19">
          <mxGeometry relative="1" as="geometry" />
        </mxCell>
        <mxCell id="-JMU76Fg918SVzfkDmiA-4" value="Rigide" style="rhombus;whiteSpace=wrap;html=1;" vertex="1" parent="1">
          <mxGeometry x="157.5" y="440" width="65" height="40" as="geometry" />
        </mxCell>
        <mxCell id="-JMU76Fg918SVzfkDmiA-9" value="non" style="text;html=1;strokeColor=none;fillColor=none;align=center;verticalAlign=middle;whiteSpace=wrap;rounded=0;" vertex="1" parent="1">
          <mxGeometry x="220" y="450" width="40" height="10" as="geometry" />
        </mxCell>
        <mxCell id="-JMU76Fg918SVzfkDmiA-10" value="oui" style="text;html=1;strokeColor=none;fillColor=none;align=center;verticalAlign=middle;whiteSpace=wrap;rounded=0;" vertex="1" parent="1">
          <mxGeometry x="192" y="480" width="40" height="10" as="geometry" />
        </mxCell>
        <mxCell id="-JMU76Fg918SVzfkDmiA-46" value="" style="edgeStyle=orthogonalEdgeStyle;rounded=0;orthogonalLoop=1;jettySize=auto;html=1;strokeColor=#00FF00;" edge="1" parent="1" source="-JMU76Fg918SVzfkDmiA-40" target="-JMU76Fg918SVzfkDmiA-45">
          <mxGeometry relative="1" as="geometry" />
        </mxCell>
        <mxCell id="-JMU76Fg918SVzfkDmiA-40" value="Pot présent dans un emplacement &lt;br&gt;du stockage&amp;nbsp;" style="rhombus;whiteSpace=wrap;html=1;strokeColor=#00FF00;" vertex="1" parent="1">
          <mxGeometry x="407.68" y="531.52" width="177.16" height="83.5" as="geometry" />
        </mxCell>
        <mxCell id="-JMU76Fg918SVzfkDmiA-44" value="non" style="text;html=1;strokeColor=none;fillColor=none;align=center;verticalAlign=middle;whiteSpace=wrap;rounded=0;" vertex="1" parent="1">
          <mxGeometry x="379.38" y="531.52" width="20" height="60" as="geometry" />
        </mxCell>
        <mxCell id="-JMU76Fg918SVzfkDmiA-47" style="edgeStyle=orthogonalEdgeStyle;rounded=0;orthogonalLoop=1;jettySize=auto;html=1;entryX=0.5;entryY=0;entryDx=0;entryDy=0;" edge="1" parent="1" source="-JMU76Fg918SVzfkDmiA-45" target="g1vSutqYQsQFPhI-T5Rt-2">
          <mxGeometry relative="1" as="geometry">
            <Array as="points">
              <mxPoint x="496" y="810" />
              <mxPoint x="333" y="810" />
            </Array>
          </mxGeometry>
        </mxCell>
        <mxCell id="-JMU76Fg918SVzfkDmiA-45" value="rotation de l&#39;AX12 vers l&#39;emplacement du stockage contentant un pot&amp;nbsp;" style="rounded=1;whiteSpace=wrap;html=1;" vertex="1" parent="1">
          <mxGeometry x="419.38" y="720" width="153.75" height="50" as="geometry" />
        </mxCell>
        <mxCell id="-JMU76Fg918SVzfkDmiA-50" value="Ordre de partir&amp;nbsp;" style="ellipse;whiteSpace=wrap;html=1;" vertex="1" parent="1">
          <mxGeometry x="390" y="637.75" width="100" height="37.5" as="geometry" />
        </mxCell>
        <mxCell id="-JMU76Fg918SVzfkDmiA-61" style="edgeStyle=orthogonalEdgeStyle;rounded=0;orthogonalLoop=1;jettySize=auto;html=1;entryX=0.5;entryY=0;entryDx=0;entryDy=0;strokeColor=#00FFFF;" edge="1" parent="1" source="-JMU76Fg918SVzfkDmiA-51" target="-JMU76Fg918SVzfkDmiA-45">
          <mxGeometry relative="1" as="geometry">
            <Array as="points">
              <mxPoint x="270" y="700" />
              <mxPoint x="496" y="700" />
            </Array>
          </mxGeometry>
        </mxCell>
        <mxCell id="U5YBuGYQuAur6ns4mEbi-2" style="edgeStyle=orthogonalEdgeStyle;rounded=0;orthogonalLoop=1;jettySize=auto;html=1;entryX=0;entryY=0.5;entryDx=0;entryDy=0;" edge="1" parent="1" source="-JMU76Fg918SVzfkDmiA-51" target="-JMU76Fg918SVzfkDmiA-50">
          <mxGeometry relative="1" as="geometry" />
        </mxCell>
        <mxCell id="-JMU76Fg918SVzfkDmiA-51" value="Emplacement contenant un pot" style="rhombus;whiteSpace=wrap;html=1;strokeColor=#00FFFF;" vertex="1" parent="1">
          <mxGeometry x="211.8" y="620" width="116.4" height="73" as="geometry" />
        </mxCell>
        <mxCell id="-JMU76Fg918SVzfkDmiA-54" value="non" style="text;html=1;strokeColor=none;fillColor=none;align=center;verticalAlign=middle;whiteSpace=wrap;rounded=0;" vertex="1" parent="1">
          <mxGeometry x="328.2" y="640.02" width="20" height="10" as="geometry" />
        </mxCell>
        <mxCell id="-JMU76Fg918SVzfkDmiA-58" style="edgeStyle=orthogonalEdgeStyle;rounded=0;orthogonalLoop=1;jettySize=auto;html=1;entryX=0.5;entryY=0;entryDx=0;entryDy=0;" edge="1" parent="1" source="-JMU76Fg918SVzfkDmiA-55" target="g1vSutqYQsQFPhI-T5Rt-2">
          <mxGeometry relative="1" as="geometry">
            <Array as="points">
              <mxPoint x="190" y="810" />
              <mxPoint x="333" y="810" />
            </Array>
          </mxGeometry>
        </mxCell>
        <mxCell id="-JMU76Fg918SVzfkDmiA-55" value="rotation de l&#39;AX12 de l&#39;espace de stockage vers l&#39;emplacement libre" style="rounded=1;whiteSpace=wrap;html=1;" vertex="1" parent="1">
          <mxGeometry x="132.5" y="720" width="130" height="60" as="geometry" />
        </mxCell>
        <mxCell id="-JMU76Fg918SVzfkDmiA-57" value="oui" style="text;html=1;strokeColor=none;fillColor=none;align=center;verticalAlign=middle;whiteSpace=wrap;rounded=0;" vertex="1" parent="1">
          <mxGeometry x="182.5" y="625.02" width="40" height="35.02" as="geometry" />
        </mxCell>
        <mxCell id="-JMU76Fg918SVzfkDmiA-62" value="oui" style="text;html=1;strokeColor=none;fillColor=none;align=center;verticalAlign=middle;whiteSpace=wrap;rounded=0;" vertex="1" parent="1">
          <mxGeometry x="270" y="683" width="40" height="10" as="geometry" />
        </mxCell>
        <mxCell id="-JMU76Fg918SVzfkDmiA-63" value="oui" style="text;html=1;strokeColor=none;fillColor=none;align=center;verticalAlign=middle;whiteSpace=wrap;rounded=0;" vertex="1" parent="1">
          <mxGeometry x="490" y="630.02" width="40" height="10" as="geometry" />
        </mxCell>
        <mxCell id="NL0V0TXCsaVMtrq0Drly-7" value="" style="endArrow=classic;html=1;rounded=0;exitX=0.5;exitY=1;exitDx=0;exitDy=0;entryX=0.5;entryY=0;entryDx=0;entryDy=0;strokeColor=#B266FF;" edge="1" parent="1" source="POfh_JaIX2mfIjJhbox0-18" target="NL0V0TXCsaVMtrq0Drly-8">
          <mxGeometry width="50" height="50" relative="1" as="geometry">
            <mxPoint x="130" y="610" as="sourcePoint" />
            <mxPoint x="69" y="560" as="targetPoint" />
          </mxGeometry>
        </mxCell>
        <mxCell id="NL0V0TXCsaVMtrq0Drly-8" value="Emplacement&lt;br&gt;&amp;nbsp;vide disponible" style="rhombus;whiteSpace=wrap;html=1;strokeColor=#B266FF;" vertex="1" parent="1">
          <mxGeometry x="10.550000000000011" y="590" width="116.4" height="80" as="geometry" />
        </mxCell>
        <mxCell id="NL0V0TXCsaVMtrq0Drly-10" value="oui" style="text;html=1;strokeColor=none;fillColor=none;align=center;verticalAlign=middle;whiteSpace=wrap;rounded=0;" vertex="1" parent="1">
          <mxGeometry x="70" y="670" width="40" height="10" as="geometry" />
        </mxCell>
        <mxCell id="NL0V0TXCsaVMtrq0Drly-11" value="non" style="text;html=1;strokeColor=none;fillColor=none;align=center;verticalAlign=middle;whiteSpace=wrap;rounded=0;" vertex="1" parent="1">
          <mxGeometry x="126.94999999999999" y="615.02" width="20" height="10" as="geometry" />
        </mxCell>
        <mxCell id="NL0V0TXCsaVMtrq0Drly-18" style="edgeStyle=orthogonalEdgeStyle;rounded=0;orthogonalLoop=1;jettySize=auto;html=1;exitX=0.5;exitY=1;exitDx=0;exitDy=0;strokeColor=#B266FF;" edge="1" parent="1" source="NL0V0TXCsaVMtrq0Drly-8">
          <mxGeometry relative="1" as="geometry">
            <Array as="points">
              <mxPoint x="69" y="680" />
            </Array>
            <mxPoint x="239" y="603" as="sourcePoint" />
            <mxPoint x="190" y="680" as="targetPoint" />
          </mxGeometry>
        </mxCell>
        <mxCell id="NL0V0TXCsaVMtrq0Drly-19" value="" style="endArrow=none;html=1;rounded=0;exitX=1;exitY=0.5;exitDx=0;exitDy=0;" edge="1" parent="1" source="NL0V0TXCsaVMtrq0Drly-8">
          <mxGeometry width="50" height="50" relative="1" as="geometry">
            <mxPoint x="250" y="620" as="sourcePoint" />
            <mxPoint x="170" y="630" as="targetPoint" />
          </mxGeometry>
        </mxCell>
        <mxCell id="NL0V0TXCsaVMtrq0Drly-20" value="" style="endArrow=none;dashed=1;html=1;dashPattern=1 3;strokeWidth=2;rounded=0;" edge="1" parent="1">
          <mxGeometry width="50" height="50" relative="1" as="geometry">
            <mxPoint x="170" y="630" as="sourcePoint" />
            <mxPoint x="210" y="630" as="targetPoint" />
          </mxGeometry>
        </mxCell>
        <mxCell id="NL0V0TXCsaVMtrq0Drly-23" value="" style="endArrow=none;html=1;rounded=0;" edge="1" parent="1">
          <mxGeometry width="50" height="50" relative="1" as="geometry">
            <mxPoint x="210" y="630" as="sourcePoint" />
            <mxPoint x="270" y="600" as="targetPoint" />
          </mxGeometry>
        </mxCell>
        <mxCell id="NL0V0TXCsaVMtrq0Drly-24" value="" style="endArrow=none;dashed=1;html=1;dashPattern=1 3;strokeWidth=2;rounded=0;" edge="1" parent="1">
          <mxGeometry width="50" height="50" relative="1" as="geometry">
            <mxPoint x="290" y="600" as="sourcePoint" />
            <mxPoint x="270" y="600" as="targetPoint" />
          </mxGeometry>
        </mxCell>
        <mxCell id="NL0V0TXCsaVMtrq0Drly-26" value="" style="endArrow=classic;html=1;rounded=0;entryX=0.5;entryY=0;entryDx=0;entryDy=0;" edge="1" parent="1" target="-JMU76Fg918SVzfkDmiA-50">
          <mxGeometry width="50" height="50" relative="1" as="geometry">
            <mxPoint x="290" y="600" as="sourcePoint" />
            <mxPoint x="380" y="630" as="targetPoint" />
            <Array as="points">
              <mxPoint x="440" y="600" />
            </Array>
          </mxGeometry>
        </mxCell>
        <mxCell id="NL0V0TXCsaVMtrq0Drly-31" value="" style="endArrow=classic;html=1;rounded=0;entryX=1;entryY=0.5;entryDx=0;entryDy=0;exitX=0;exitY=0.5;exitDx=0;exitDy=0;strokeColor=#006600;" edge="1" parent="1" source="-JMU76Fg918SVzfkDmiA-40" target="-JMU76Fg918SVzfkDmiA-55">
          <mxGeometry width="50" height="50" relative="1" as="geometry">
            <mxPoint x="440" y="630" as="sourcePoint" />
            <mxPoint x="400" y="780" as="targetPoint" />
            <Array as="points">
              <mxPoint x="360" y="573" />
              <mxPoint x="360" y="750" />
            </Array>
          </mxGeometry>
        </mxCell>
        <mxCell id="h9Teyv5puydHdtFZyPq9-1" value="" style="edgeStyle=orthogonalEdgeStyle;rounded=0;orthogonalLoop=1;jettySize=auto;html=1;" edge="1" parent="1" source="g1vSutqYQsQFPhI-T5Rt-13" target="NL0V0TXCsaVMtrq0Drly-1">
          <mxGeometry relative="1" as="geometry">
            <mxPoint x="333" y="1100" as="sourcePoint" />
            <mxPoint x="333" y="1200" as="targetPoint" />
          </mxGeometry>
        </mxCell>
        <mxCell id="NL0V0TXCsaVMtrq0Drly-1" value="Ouverture de la pince pour lacher l&#39;objet" style="rounded=1;whiteSpace=wrap;html=1;" vertex="1" parent="1">
          <mxGeometry x="263.13" y="1140" width="140" height="30" as="geometry" />
        </mxCell>
      </root>
    </mxGraphModel>
  </diagram>
  <diagram id="jKHGUz1uXys8cbDI47N8" name="Asservissement_lâcher_pots">
    <mxGraphModel dx="1035" dy="525" grid="1" gridSize="10" guides="1" tooltips="1" connect="1" arrows="1" fold="1" page="1" pageScale="1" pageWidth="827" pageHeight="1169" math="0" shadow="0">
      <root>
        <mxCell id="0" />
        <mxCell id="1" parent="0" />
      </root>
    </mxGraphModel>
  </diagram>
  <diagram id="hsGeyqT_DS2t7nP-Vcc8" name="Carte Mère">
    <mxGraphModel dx="880" dy="446" grid="1" gridSize="10" guides="1" tooltips="1" connect="1" arrows="1" fold="1" page="1" pageScale="1" pageWidth="827" pageHeight="1169" math="0" shadow="0">
      <root>
        <mxCell id="0" />
        <mxCell id="1" parent="0" />
      </root>
    </mxGraphModel>
  </diagram>
  <diagram id="iDxuoiNeo1_SSQRt6IDy" name="Asservissement_lâchage_okay">
    <mxGraphModel grid="1" page="1" gridSize="10" guides="1" tooltips="1" connect="1" arrows="1" fold="1" pageScale="1" pageWidth="827" pageHeight="1169" math="0" shadow="0">
      <root>
        <mxCell id="0" />
        <mxCell id="1" parent="0" />
        <mxCell id="-gr_zqGcpCnlufZhe0a0-1" value="Lâchage&lt;br&gt;des objets" style="shape=trapezoid;perimeter=trapezoidPerimeter;whiteSpace=wrap;html=1;fixedSize=1;" vertex="1" parent="1">
          <mxGeometry x="77.91999999999999" y="30" width="120" height="60" as="geometry" />
        </mxCell>
        <mxCell id="-gr_zqGcpCnlufZhe0a0-3" value="Recherche&lt;br&gt;de la position du robot&amp;nbsp;" style="shape=parallelogram;perimeter=parallelogramPerimeter;whiteSpace=wrap;html=1;fixedSize=1;" vertex="1" parent="1">
          <mxGeometry x="40" y="120" width="210" height="70" as="geometry" />
        </mxCell>
        <mxCell id="-gr_zqGcpCnlufZhe0a0-12" value="non" style="text;html=1;strokeColor=none;fillColor=none;align=center;verticalAlign=middle;whiteSpace=wrap;rounded=0;" vertex="1" parent="1">
          <mxGeometry x="177.48999999999998" y="250" width="40" height="40.04" as="geometry" />
        </mxCell>
        <mxCell id="-gr_zqGcpCnlufZhe0a0-36" style="edgeStyle=orthogonalEdgeStyle;rounded=0;orthogonalLoop=1;jettySize=auto;html=1;entryX=0.5;entryY=0;entryDx=0;entryDy=0;" edge="1" parent="1">
          <mxGeometry relative="1" as="geometry">
            <mxPoint x="517.5799999999999" y="480" as="targetPoint" />
          </mxGeometry>
        </mxCell>
        <mxCell id="-gr_zqGcpCnlufZhe0a0-69" value="rotation de l&#39;AX12 vers un&amp;nbsp; vers cet emplacement du stockage" style="rounded=1;whiteSpace=wrap;html=1;" vertex="1" parent="1">
          <mxGeometry x="65.70000000000002" y="640" width="147.53" height="70" as="geometry" />
        </mxCell>
        <mxCell id="-gr_zqGcpCnlufZhe0a0-70" value="" style="endArrow=classic;html=1;rounded=0;exitX=0.5;exitY=1;exitDx=0;exitDy=0;" edge="1" parent="1" source="-gr_zqGcpCnlufZhe0a0-1">
          <mxGeometry width="50" height="50" relative="1" as="geometry">
            <mxPoint x="207.92" y="200" as="sourcePoint" />
            <mxPoint x="137.92" y="120" as="targetPoint" />
          </mxGeometry>
        </mxCell>
        <mxCell id="-gr_zqGcpCnlufZhe0a0-79" style="edgeStyle=orthogonalEdgeStyle;rounded=0;orthogonalLoop=1;jettySize=auto;html=1;exitX=1;exitY=0.5;exitDx=0;exitDy=0;entryX=0.5;entryY=0;entryDx=0;entryDy=0;" edge="1" parent="1" source="LnHU4ZqVUVUp3UPWdGeN-2" target="YlvKl74D7lp9nHLHpYqS-2">
          <mxGeometry relative="1" as="geometry">
            <mxPoint x="357.91999999999996" y="400" as="sourcePoint" />
            <mxPoint x="317.91999999999996" y="280" as="targetPoint" />
            <Array as="points">
              <mxPoint x="570" y="280" />
            </Array>
          </mxGeometry>
        </mxCell>
        <mxCell id="LnHU4ZqVUVUp3UPWdGeN-1" value="" style="endArrow=classic;html=1;rounded=0;exitX=0.5;exitY=1;exitDx=0;exitDy=0;" edge="1" parent="1">
          <mxGeometry width="50" height="50" relative="1" as="geometry">
            <mxPoint x="137.42" y="190" as="sourcePoint" />
            <mxPoint x="137.92" y="240" as="targetPoint" />
          </mxGeometry>
        </mxCell>
        <mxCell id="LnHU4ZqVUVUp3UPWdGeN-2" value="Devant une jardinière&amp;nbsp;" style="rhombus;whiteSpace=wrap;html=1;" vertex="1" parent="1">
          <mxGeometry x="89.44999999999996" y="240" width="95" height="80" as="geometry" />
        </mxCell>
        <mxCell id="LnHU4ZqVUVUp3UPWdGeN-3" value="oui" style="text;html=1;strokeColor=none;fillColor=none;align=center;verticalAlign=middle;whiteSpace=wrap;rounded=0;" vertex="1" parent="1">
          <mxGeometry x="146.98999999999998" y="320" width="40" height="39.96" as="geometry" />
        </mxCell>
        <mxCell id="LnHU4ZqVUVUp3UPWdGeN-4" value="" style="endArrow=classic;html=1;rounded=0;exitX=0.5;exitY=1;exitDx=0;exitDy=0;" edge="1" parent="1">
          <mxGeometry width="50" height="50" relative="1" as="geometry">
            <mxPoint x="136.44999999999996" y="320" as="sourcePoint" />
            <mxPoint x="136.92" y="350" as="targetPoint" />
          </mxGeometry>
        </mxCell>
        <mxCell id="YlvKl74D7lp9nHLHpYqS-1" value="Position robot=Jardinière&amp;nbsp;" style="rounded=1;whiteSpace=wrap;html=1;" vertex="1" parent="1">
          <mxGeometry x="61.319999999999965" y="350" width="151.25" height="20" as="geometry" />
        </mxCell>
        <mxCell id="YlvKl74D7lp9nHLHpYqS-2" value="Position robot=Emplacement de dépôt&amp;nbsp;" style="rounded=1;whiteSpace=wrap;html=1;" vertex="1" parent="1">
          <mxGeometry x="497.81999999999994" y="320" width="144.35" height="40" as="geometry" />
        </mxCell>
        <mxCell id="YlvKl74D7lp9nHLHpYqS-5" value="" style="endArrow=classic;html=1;rounded=0;exitX=0.5;exitY=1;exitDx=0;exitDy=0;" edge="1" parent="1">
          <mxGeometry width="50" height="50" relative="1" as="geometry">
            <mxPoint x="135.50999999999996" y="370" as="sourcePoint" />
            <mxPoint x="136.98" y="400" as="targetPoint" />
          </mxGeometry>
        </mxCell>
        <mxCell id="YlvKl74D7lp9nHLHpYqS-6" value="" style="endArrow=classic;html=1;rounded=0;exitX=0.5;exitY=1;exitDx=0;exitDy=0;" edge="1" parent="1">
          <mxGeometry width="50" height="50" relative="1" as="geometry">
            <mxPoint x="569.4999999999999" y="360" as="sourcePoint" />
            <mxPoint x="569.9699999999999" y="390" as="targetPoint" />
          </mxGeometry>
        </mxCell>
        <mxCell id="YlvKl74D7lp9nHLHpYqS-8" value="Recherche des éléments contenus dans les emplacements de stockage&amp;nbsp;" style="shape=parallelogram;perimeter=parallelogramPerimeter;whiteSpace=wrap;html=1;fixedSize=1;" vertex="1" parent="1">
          <mxGeometry x="50.49999999999997" y="400" width="180" height="40" as="geometry" />
        </mxCell>
        <mxCell id="YlvKl74D7lp9nHLHpYqS-11" value="Recherche des éléments contenus dans les emplacements de stockage&amp;nbsp;" style="shape=parallelogram;perimeter=parallelogramPerimeter;whiteSpace=wrap;html=1;fixedSize=1;" vertex="1" parent="1">
          <mxGeometry x="479.9999999999999" y="390" width="180" height="40" as="geometry" />
        </mxCell>
        <mxCell id="YlvKl74D7lp9nHLHpYqS-12" value="Pot avec plante fragile&amp;nbsp;" style="rhombus;whiteSpace=wrap;html=1;" vertex="1" parent="1">
          <mxGeometry x="84.91999999999999" y="470" width="109.08" height="80" as="geometry" />
        </mxCell>
        <mxCell id="YlvKl74D7lp9nHLHpYqS-14" value="oui" style="text;html=1;strokeColor=none;fillColor=none;align=center;verticalAlign=middle;whiteSpace=wrap;rounded=0;" vertex="1" parent="1">
          <mxGeometry x="106.98999999999998" y="550" width="40" height="39.96" as="geometry" />
        </mxCell>
        <mxCell id="YlvKl74D7lp9nHLHpYqS-15" value="non" style="text;html=1;strokeColor=none;fillColor=none;align=center;verticalAlign=middle;whiteSpace=wrap;rounded=0;" vertex="1" parent="1">
          <mxGeometry x="184.44999999999996" y="469.99999999999994" width="40" height="40.04" as="geometry" />
        </mxCell>
        <mxCell id="8av_o3xg1osyxdAZ24HI-3" value="" style="endArrow=classic;html=1;rounded=0;" edge="1" parent="1">
          <mxGeometry width="50" height="50" relative="1" as="geometry">
            <mxPoint x="139.92" y="550" as="sourcePoint" />
            <mxPoint x="139.42999999999998" y="585" as="targetPoint" />
          </mxGeometry>
        </mxCell>
        <mxCell id="8av_o3xg1osyxdAZ24HI-6" value="" style="endArrow=classic;html=1;rounded=0;exitX=0.5;exitY=1;exitDx=0;exitDy=0;" edge="1" parent="1">
          <mxGeometry width="50" height="50" relative="1" as="geometry">
            <mxPoint x="139.75999999999996" y="440" as="sourcePoint" />
            <mxPoint x="141.23" y="470" as="targetPoint" />
          </mxGeometry>
        </mxCell>
        <mxCell id="k7ToacBXkyvmXHR1cIB5-1" value="" style="edgeStyle=orthogonalEdgeStyle;rounded=0;orthogonalLoop=1;jettySize=auto;html=1;" edge="1" parent="1" source="k7ToacBXkyvmXHR1cIB5-2" target="k7ToacBXkyvmXHR1cIB5-4">
          <mxGeometry relative="1" as="geometry" />
        </mxCell>
        <mxCell id="k7ToacBXkyvmXHR1cIB5-2" value="Vérrouillage de la pince" style="rounded=1;whiteSpace=wrap;html=1;" vertex="1" parent="1">
          <mxGeometry x="66.24000000000004" y="805" width="140" height="30" as="geometry" />
        </mxCell>
        <mxCell id="k7ToacBXkyvmXHR1cIB5-3" style="edgeStyle=orthogonalEdgeStyle;rounded=0;orthogonalLoop=1;jettySize=auto;html=1;entryX=0.5;entryY=0;entryDx=0;entryDy=0;" edge="1" parent="1" source="k7ToacBXkyvmXHR1cIB5-4">
          <mxGeometry relative="1" as="geometry">
            <mxPoint x="137.26500000000001" y="975" as="targetPoint" />
          </mxGeometry>
        </mxCell>
        <mxCell id="k7ToacBXkyvmXHR1cIB5-4" value="Rotation de la pince vers la jardinière&amp;nbsp;" style="rounded=1;whiteSpace=wrap;html=1;" vertex="1" parent="1">
          <mxGeometry x="67.27000000000001" y="865" width="140" height="40" as="geometry" />
        </mxCell>
        <mxCell id="k7ToacBXkyvmXHR1cIB5-12" value="Ouverture de la pince pour lacher l&#39;objet" style="rounded=1;whiteSpace=wrap;html=1;" vertex="1" parent="1">
          <mxGeometry x="69.46000000000001" y="975" width="140" height="30" as="geometry" />
        </mxCell>
        <mxCell id="wgrWKpgYIATZ9iWkm6ty-1" value="Rotation de la pince vers l&#39;emplacement de stockage" style="rounded=1;whiteSpace=wrap;html=1;" vertex="1" parent="1">
          <mxGeometry x="70.74000000000004" y="735" width="140" height="40" as="geometry" />
        </mxCell>
        <mxCell id="wgrWKpgYIATZ9iWkm6ty-3" value="" style="endArrow=classic;html=1;rounded=0;" edge="1" parent="1">
          <mxGeometry width="50" height="50" relative="1" as="geometry">
            <mxPoint x="134.66" y="715" as="sourcePoint" />
            <mxPoint x="134.69999999999996" y="735" as="targetPoint" />
          </mxGeometry>
        </mxCell>
        <mxCell id="wgrWKpgYIATZ9iWkm6ty-4" value="" style="edgeStyle=orthogonalEdgeStyle;rounded=0;orthogonalLoop=1;jettySize=auto;html=1;" edge="1" parent="1">
          <mxGeometry relative="1" as="geometry">
            <mxPoint x="134.70000000000002" y="775" as="sourcePoint" />
            <mxPoint x="135.70000000000002" y="805" as="targetPoint" />
          </mxGeometry>
        </mxCell>
        <mxCell id="wgrWKpgYIATZ9iWkm6ty-6" value="Elément = Pot avec plante fragile" style="rounded=1;whiteSpace=wrap;html=1;" vertex="1" parent="1">
          <mxGeometry x="57.91999999999999" y="580" width="159.6" height="25" as="geometry" />
        </mxCell>
        <mxCell id="wgrWKpgYIATZ9iWkm6ty-7" value="" style="endArrow=classic;html=1;rounded=0;exitX=0.5;exitY=1;exitDx=0;exitDy=0;" edge="1" parent="1">
          <mxGeometry width="50" height="50" relative="1" as="geometry">
            <mxPoint x="140.00999999999996" y="605" as="sourcePoint" />
            <mxPoint x="141.48" y="635" as="targetPoint" />
          </mxGeometry>
        </mxCell>
        <mxCell id="wgrWKpgYIATZ9iWkm6ty-9" value="" style="endArrow=none;html=1;rounded=0;exitX=0.25;exitY=1;exitDx=0;exitDy=0;" edge="1" parent="1" source="YlvKl74D7lp9nHLHpYqS-15">
          <mxGeometry width="50" height="50" relative="1" as="geometry">
            <mxPoint x="197.92" y="500" as="sourcePoint" />
            <mxPoint x="317.91999999999996" y="510" as="targetPoint" />
          </mxGeometry>
        </mxCell>
        <mxCell id="wgrWKpgYIATZ9iWkm6ty-10" value="" style="endArrow=classic;html=1;rounded=0;" edge="1" parent="1">
          <mxGeometry width="50" height="50" relative="1" as="geometry">
            <mxPoint x="317.43999999999994" y="510" as="sourcePoint" />
            <mxPoint x="317.43999999999994" y="550" as="targetPoint" />
          </mxGeometry>
        </mxCell>
        <mxCell id="wgrWKpgYIATZ9iWkm6ty-11" value="Plante fragile&amp;nbsp;" style="rhombus;whiteSpace=wrap;html=1;" vertex="1" parent="1">
          <mxGeometry x="267.91999999999996" y="550" width="102.61" height="70" as="geometry" />
        </mxCell>
        <mxCell id="wgrWKpgYIATZ9iWkm6ty-12" value="oui" style="text;html=1;strokeColor=none;fillColor=none;align=center;verticalAlign=middle;whiteSpace=wrap;rounded=0;" vertex="1" parent="1">
          <mxGeometry x="280" y="600.04" width="40" height="39.96" as="geometry" />
        </mxCell>
        <mxCell id="wgrWKpgYIATZ9iWkm6ty-13" value="non" style="text;html=1;strokeColor=none;fillColor=none;align=center;verticalAlign=middle;whiteSpace=wrap;rounded=0;" vertex="1" parent="1">
          <mxGeometry x="357.91999999999996" y="539.96" width="40" height="40.04" as="geometry" />
        </mxCell>
        <mxCell id="wgrWKpgYIATZ9iWkm6ty-14" value="Elément = Plante fragile" style="rounded=1;whiteSpace=wrap;html=1;" vertex="1" parent="1">
          <mxGeometry x="267.91999999999996" y="640" width="159.6" height="25" as="geometry" />
        </mxCell>
        <mxCell id="wgrWKpgYIATZ9iWkm6ty-15" value="" style="edgeStyle=orthogonalEdgeStyle;rounded=0;orthogonalLoop=1;jettySize=auto;html=1;entryX=0.313;entryY=-0.017;entryDx=0;entryDy=0;entryPerimeter=0;" edge="1" parent="1" target="wgrWKpgYIATZ9iWkm6ty-14">
          <mxGeometry relative="1" as="geometry">
            <mxPoint x="320" y="620" as="sourcePoint" />
            <mxPoint x="321" y="650" as="targetPoint" />
          </mxGeometry>
        </mxCell>
        <mxCell id="wgrWKpgYIATZ9iWkm6ty-17" value="" style="endArrow=none;html=1;rounded=0;" edge="1" parent="1">
          <mxGeometry width="50" height="50" relative="1" as="geometry">
            <mxPoint x="237.92" y="680" as="sourcePoint" />
            <mxPoint x="317.91999999999996" y="680" as="targetPoint" />
          </mxGeometry>
        </mxCell>
        <mxCell id="wgrWKpgYIATZ9iWkm6ty-18" value="" style="endArrow=none;html=1;rounded=0;entryX=0.313;entryY=1.004;entryDx=0;entryDy=0;entryPerimeter=0;" edge="1" parent="1" target="wgrWKpgYIATZ9iWkm6ty-14">
          <mxGeometry width="50" height="50" relative="1" as="geometry">
            <mxPoint x="317.91999999999996" y="680" as="sourcePoint" />
            <mxPoint x="307.91999999999996" y="700" as="targetPoint" />
          </mxGeometry>
        </mxCell>
        <mxCell id="wgrWKpgYIATZ9iWkm6ty-19" value="" style="endArrow=none;html=1;rounded=0;" edge="1" parent="1">
          <mxGeometry width="50" height="50" relative="1" as="geometry">
            <mxPoint x="237.92" y="680" as="sourcePoint" />
            <mxPoint x="237.92" y="620" as="targetPoint" />
          </mxGeometry>
        </mxCell>
        <mxCell id="wgrWKpgYIATZ9iWkm6ty-20" value="" style="endArrow=classic;html=1;rounded=0;" edge="1" parent="1">
          <mxGeometry width="50" height="50" relative="1" as="geometry">
            <mxPoint x="237.92" y="620" as="sourcePoint" />
            <mxPoint x="137.92" y="620" as="targetPoint" />
          </mxGeometry>
        </mxCell>
        <mxCell id="ExnmU6gjxCb5SSJN858J-2" value="" style="endArrow=none;html=1;rounded=0;exitX=1;exitY=0.5;exitDx=0;exitDy=0;" edge="1" parent="1" source="wgrWKpgYIATZ9iWkm6ty-11">
          <mxGeometry width="50" height="50" relative="1" as="geometry">
            <mxPoint x="357.91999999999996" y="690" as="sourcePoint" />
            <mxPoint x="477.91999999999996" y="585" as="targetPoint" />
          </mxGeometry>
        </mxCell>
        <mxCell id="ExnmU6gjxCb5SSJN858J-3" value="" style="endArrow=classic;html=1;rounded=0;" edge="1" parent="1">
          <mxGeometry width="50" height="50" relative="1" as="geometry">
            <mxPoint x="477.91999999999996" y="585" as="sourcePoint" />
            <mxPoint x="477.91999999999996" y="615" as="targetPoint" />
          </mxGeometry>
        </mxCell>
        <mxCell id="ExnmU6gjxCb5SSJN858J-4" value="ordre de partir" style="ellipse;whiteSpace=wrap;html=1;" vertex="1" parent="1">
          <mxGeometry x="437.91999999999996" y="615" width="100" height="50" as="geometry" />
        </mxCell>
        <mxCell id="ExnmU6gjxCb5SSJN858J-5" value="Plante rigide" style="rhombus;whiteSpace=wrap;html=1;" vertex="1" parent="1">
          <mxGeometry x="515.4599999999999" y="459.96" width="109.08" height="80" as="geometry" />
        </mxCell>
        <mxCell id="ExnmU6gjxCb5SSJN858J-8" value="" style="endArrow=classic;html=1;rounded=0;exitX=0.5;exitY=1;exitDx=0;exitDy=0;" edge="1" parent="1">
          <mxGeometry width="50" height="50" relative="1" as="geometry">
            <mxPoint x="569.4999999999999" y="430" as="sourcePoint" />
            <mxPoint x="569.9699999999999" y="460" as="targetPoint" />
          </mxGeometry>
        </mxCell>
        <mxCell id="ExnmU6gjxCb5SSJN858J-9" value="oui" style="text;html=1;strokeColor=none;fillColor=none;align=center;verticalAlign=middle;whiteSpace=wrap;rounded=0;" vertex="1" parent="1">
          <mxGeometry x="515.4599999999999" y="525" width="40" height="39.96" as="geometry" />
        </mxCell>
        <mxCell id="ExnmU6gjxCb5SSJN858J-10" value="non" style="text;html=1;strokeColor=none;fillColor=none;align=center;verticalAlign=middle;whiteSpace=wrap;rounded=0;" vertex="1" parent="1">
          <mxGeometry x="602.17" y="459.96000000000004" width="40" height="40.04" as="geometry" />
        </mxCell>
        <mxCell id="ExnmU6gjxCb5SSJN858J-11" value="Elément = plante rigide" style="rounded=1;whiteSpace=wrap;html=1;" vertex="1" parent="1">
          <mxGeometry x="490.20000000000005" y="564.96" width="159.6" height="25" as="geometry" />
        </mxCell>
        <mxCell id="ExnmU6gjxCb5SSJN858J-12" value="" style="endArrow=classic;html=1;rounded=0;exitX=0.5;exitY=1;exitDx=0;exitDy=0;" edge="1" parent="1">
          <mxGeometry width="50" height="50" relative="1" as="geometry">
            <mxPoint x="569.6599999999999" y="534.96" as="sourcePoint" />
            <mxPoint x="570.1299999999999" y="564.96" as="targetPoint" />
          </mxGeometry>
        </mxCell>
        <mxCell id="ExnmU6gjxCb5SSJN858J-13" value="" style="endArrow=none;html=1;rounded=0;" edge="1" parent="1">
          <mxGeometry width="50" height="50" relative="1" as="geometry">
            <mxPoint x="582" y="720" as="sourcePoint" />
            <mxPoint x="582" y="590" as="targetPoint" />
          </mxGeometry>
        </mxCell>
        <mxCell id="ExnmU6gjxCb5SSJN858J-14" value="" style="endArrow=none;html=1;rounded=0;" edge="1" parent="1">
          <mxGeometry width="50" height="50" relative="1" as="geometry">
            <mxPoint x="240" y="720" as="sourcePoint" />
            <mxPoint x="580" y="720" as="targetPoint" />
          </mxGeometry>
        </mxCell>
        <mxCell id="ExnmU6gjxCb5SSJN858J-15" value="" style="endArrow=classic;html=1;rounded=0;" edge="1" parent="1">
          <mxGeometry width="50" height="50" relative="1" as="geometry">
            <mxPoint x="240" y="720" as="sourcePoint" />
            <mxPoint x="240" y="680" as="targetPoint" />
          </mxGeometry>
        </mxCell>
        <mxCell id="ExnmU6gjxCb5SSJN858J-16" value="" style="endArrow=none;html=1;rounded=0;exitX=1;exitY=0.5;exitDx=0;exitDy=0;" edge="1" parent="1" source="ExnmU6gjxCb5SSJN858J-5">
          <mxGeometry width="50" height="50" relative="1" as="geometry">
            <mxPoint x="550" y="510" as="sourcePoint" />
            <mxPoint x="720" y="500" as="targetPoint" />
          </mxGeometry>
        </mxCell>
        <mxCell id="ExnmU6gjxCb5SSJN858J-17" value="" style="endArrow=classic;html=1;rounded=0;" edge="1" parent="1">
          <mxGeometry width="50" height="50" relative="1" as="geometry">
            <mxPoint x="720" y="500" as="sourcePoint" />
            <mxPoint x="720" y="540" as="targetPoint" />
          </mxGeometry>
        </mxCell>
        <mxCell id="ExnmU6gjxCb5SSJN858J-18" value="Plante fragile avec un pot" style="rhombus;whiteSpace=wrap;html=1;" vertex="1" parent="1">
          <mxGeometry x="666" y="540" width="109.08" height="90" as="geometry" />
        </mxCell>
        <mxCell id="ExnmU6gjxCb5SSJN858J-19" value="oui" style="text;html=1;strokeColor=none;fillColor=none;align=center;verticalAlign=middle;whiteSpace=wrap;rounded=0;" vertex="1" parent="1">
          <mxGeometry x="679.9999999999999" y="620" width="40" height="39.96" as="geometry" />
        </mxCell>
        <mxCell id="ExnmU6gjxCb5SSJN858J-20" value="non" style="text;html=1;strokeColor=none;fillColor=none;align=center;verticalAlign=middle;whiteSpace=wrap;rounded=0;" vertex="1" parent="1">
          <mxGeometry x="760" y="550.0000000000001" width="40" height="40.04" as="geometry" />
        </mxCell>
        <mxCell id="ExnmU6gjxCb5SSJN858J-21" value="" style="endArrow=none;html=1;rounded=0;entryX=1;entryY=0.25;entryDx=0;entryDy=0;" edge="1" parent="1" target="ExnmU6gjxCb5SSJN858J-19">
          <mxGeometry width="50" height="50" relative="1" as="geometry">
            <mxPoint x="720" y="720" as="sourcePoint" />
            <mxPoint x="490" y="600" as="targetPoint" />
          </mxGeometry>
        </mxCell>
        <mxCell id="ExnmU6gjxCb5SSJN858J-22" value="" style="endArrow=classic;html=1;rounded=0;" edge="1" parent="1">
          <mxGeometry width="50" height="50" relative="1" as="geometry">
            <mxPoint x="720" y="720" as="sourcePoint" />
            <mxPoint x="580" y="720" as="targetPoint" />
          </mxGeometry>
        </mxCell>
        <mxCell id="ExnmU6gjxCb5SSJN858J-23" value="" style="endArrow=none;html=1;rounded=0;exitX=0.5;exitY=1;exitDx=0;exitDy=0;" edge="1" parent="1" source="k7ToacBXkyvmXHR1cIB5-12">
          <mxGeometry width="50" height="50" relative="1" as="geometry">
            <mxPoint x="170" y="920" as="sourcePoint" />
            <mxPoint x="140" y="1030" as="targetPoint" />
          </mxGeometry>
        </mxCell>
        <mxCell id="ExnmU6gjxCb5SSJN858J-24" value="" style="endArrow=none;html=1;rounded=0;" edge="1" parent="1">
          <mxGeometry width="50" height="50" relative="1" as="geometry">
            <mxPoint x="10" y="1030" as="sourcePoint" />
            <mxPoint x="140" y="1030" as="targetPoint" />
          </mxGeometry>
        </mxCell>
        <mxCell id="ExnmU6gjxCb5SSJN858J-26" value="" style="endArrow=none;html=1;rounded=0;" edge="1" parent="1">
          <mxGeometry width="50" height="50" relative="1" as="geometry">
            <mxPoint x="10" y="1030" as="sourcePoint" />
            <mxPoint x="10" y="10" as="targetPoint" />
          </mxGeometry>
        </mxCell>
        <mxCell id="ExnmU6gjxCb5SSJN858J-28" value="" style="endArrow=classic;html=1;rounded=0;" edge="1" parent="1">
          <mxGeometry width="50" height="50" relative="1" as="geometry">
            <mxPoint x="140" y="10" as="sourcePoint" />
            <mxPoint x="140" y="30" as="targetPoint" />
          </mxGeometry>
        </mxCell>
        <mxCell id="ExnmU6gjxCb5SSJN858J-31" value="" style="endArrow=none;html=1;rounded=0;" edge="1" parent="1">
          <mxGeometry width="50" height="50" relative="1" as="geometry">
            <mxPoint x="10" y="10" as="sourcePoint" />
            <mxPoint x="140" y="10" as="targetPoint" />
          </mxGeometry>
        </mxCell>
        <mxCell id="ExnmU6gjxCb5SSJN858J-35" value="" style="endArrow=none;html=1;rounded=0;" edge="1" parent="1">
          <mxGeometry width="50" height="50" relative="1" as="geometry">
            <mxPoint x="775.08" y="584" as="sourcePoint" />
            <mxPoint x="802" y="584.31" as="targetPoint" />
          </mxGeometry>
        </mxCell>
        <mxCell id="ExnmU6gjxCb5SSJN858J-36" value="" style="endArrow=classic;html=1;rounded=0;" edge="1" parent="1">
          <mxGeometry width="50" height="50" relative="1" as="geometry">
            <mxPoint x="800" y="585" as="sourcePoint" />
            <mxPoint x="800" y="615" as="targetPoint" />
          </mxGeometry>
        </mxCell>
        <mxCell id="ExnmU6gjxCb5SSJN858J-37" value="ordre de partir" style="ellipse;whiteSpace=wrap;html=1;" vertex="1" parent="1">
          <mxGeometry x="757" y="615" width="70" height="37.5" as="geometry" />
        </mxCell>
      </root>
    </mxGraphModel>
  </diagram>
</mxfile>
